<svg width="444" height="326" viewBox="0 0 444 326" fill="none" xmlns="http://www.w3.org/2000/svg">
<g clip-path="url(#clip0_147_1307)">
<path style="mix-blend-mode:multiply" opacity="0.4" d="M66.7617 309.965H404.768C404.768 309.965 420.654 217.497 378.767 200.177C336.88 182.834 352.767 60.0439 300.766 19.6067C248.765 -20.8537 159.218 -2.07841 160.65 107.733C162.104 217.521 66.7617 171.287 66.7617 309.965Z" fill="url(#paint0_linear_147_1307)"/>
</g>
<g clip-path="url(#clip1_147_1307)">
<path d="M439.073 73.7505L441.629 89.0194L426.722 86.7488C420.663 90.6233 413.361 92.8849 405.501 92.8849C404.052 92.8849 402.624 92.8083 401.217 92.658C403.126 87.314 404.16 81.5899 404.16 75.636C404.16 57.0687 394.095 40.7302 378.853 31.2491C385.71 24.8514 395.119 20.9053 405.501 20.9053C426.48 20.9053 443.488 37.0179 443.488 56.8946C443.488 62.9838 441.89 68.7209 439.073 73.7495V73.7505Z" fill="#1FD1CC"/>
<path d="M302.813 98.3991L299.36 119.021L319.493 115.955C327.676 121.187 337.538 124.242 348.153 124.242C376.485 124.242 399.455 102.48 399.455 75.636C399.455 48.7925 376.485 27.0304 348.153 27.0304C319.82 27.0304 296.851 48.7915 296.851 75.635C296.851 83.8595 299.007 91.6074 302.813 98.3981V98.3991Z" fill="#7F6CFF"/>
<path d="M350.517 89.9685H346.016C344.968 89.9685 344.159 89.0641 344.302 88.0492C345.073 82.5818 349.037 78.6855 352.579 75.2071C356.362 71.4898 359.63 68.28 359.63 63.6126C359.63 57.4109 354.463 52.3664 348.113 52.3664C342.276 52.3664 337.44 56.6289 336.695 62.1331C336.581 62.9778 335.851 63.6136 334.979 63.6136H330.524C329.505 63.6136 328.703 62.7579 328.801 61.7679C329.754 52.1833 338.051 44.6663 348.112 44.6663C358.81 44.6663 367.515 53.1663 367.515 63.6136C367.515 67.1895 366.455 70.5038 364.275 73.7474C362.509 76.3752 360.303 78.5412 358.172 80.6367C355.335 83.4236 352.832 85.8832 352.205 88.6452C352.03 89.4183 351.329 89.9695 350.517 89.9695V89.9685Z" fill="white"/>
<path d="M348.111 106.606C350.992 106.606 353.328 104.325 353.328 101.511C353.328 98.6978 350.992 96.417 348.111 96.417C345.23 96.417 342.894 98.6978 342.894 101.511C342.894 104.325 345.23 106.606 348.111 106.606Z" fill="white"/>
</g>
<g clip-path="url(#clip2_147_1307)">
<path d="M270.91 85.8365H105.016C98.1712 85.8365 92.6226 91.3825 92.6226 98.2237V235.587C92.6226 242.429 98.1712 247.975 105.016 247.975H270.91C277.755 247.975 283.303 242.429 283.303 235.587V98.2237C283.303 91.3825 277.755 85.8365 270.91 85.8365Z" fill="#ECEEED"/>
<path d="M125.487 141.441H113.115V153.807H125.487V141.441Z" fill="#1DA7D5"/>
<path d="M148.36 141.441H135.988V153.807H148.36V141.441Z" fill="#1DA7D5"/>
<path d="M171.254 141.441H158.882V153.807H171.254V141.441Z" fill="#1DA7D5"/>
<path d="M194.149 141.441H181.777V153.807H194.149V141.441Z" fill="#1DA7D5"/>
<path d="M217.043 141.441H204.671V153.807H217.043V141.441Z" fill="#1DA7D5"/>
<path d="M239.937 141.441H227.565V153.807H239.937V141.441Z" fill="#1DA7D5"/>
<path d="M262.832 141.441H250.46V153.807H262.832V141.441Z" fill="#137D99"/>
<path d="M125.487 163.665H113.115V176.031H125.487V163.665Z" fill="#1DA7D5"/>
<path d="M148.36 163.665H135.988V176.031H148.36V163.665Z" fill="#1DA7D5"/>
<path d="M171.254 163.665H158.882V176.031H171.254V163.665Z" fill="#FFC300"/>
<path d="M194.149 163.665H181.777V176.031H194.149V163.665Z" fill="#1DA7D5"/>
<path d="M217.043 163.665H204.671V176.031H217.043V163.665Z" fill="#1DA7D5"/>
<path d="M239.937 163.665H227.565V176.031H239.937V163.665Z" fill="#1DA7D5"/>
<path d="M262.832 163.665H250.46V176.031H262.832V163.665Z" fill="#137D99"/>
<path d="M125.487 185.869H113.115V198.235H125.487V185.869Z" fill="#1DA7D5"/>
<path d="M148.36 185.869H135.988V198.235H148.36V185.869Z" fill="#1DA7D5"/>
<path d="M171.254 185.869H158.882V198.235H171.254V185.869Z" fill="#1DA7D5"/>
<path d="M194.149 185.869H181.777V198.235H194.149V185.869Z" fill="#1DA7D5"/>
<path d="M217.043 185.869H204.671V198.235H217.043V185.869Z" fill="#FE6704"/>
<path d="M239.937 185.869H227.565V198.235H239.937V185.869Z" fill="#1DA7D5"/>
<path d="M262.832 185.869H250.46V198.235H262.832V185.869Z" fill="#137D99"/>
<path d="M125.487 208.093H113.115V220.459H125.487V208.093Z" fill="#1DA7D5"/>
<path d="M148.36 208.093H135.988V220.459H148.36V208.093Z" fill="#1DA7D5"/>
<path d="M171.254 208.093H158.882V220.459H171.254V208.093Z" fill="#1DA7D5"/>
<path d="M194.149 208.093H181.777V220.459H194.149V208.093Z" fill="#1DA7D5"/>
<path d="M217.043 208.093H204.671V220.459H217.043V208.093Z" fill="#1DA7D5"/>
<path d="M239.937 208.093H227.565V220.459H239.937V208.093Z" fill="#1DA7D5"/>
<path d="M292.082 279.293L254.201 299.499L248.802 282.948L225.397 263.74L187.644 232.783L166.003 215.041L197.422 201.061L292.082 279.293Z" fill="#22A8D5"/>
<path d="M197.422 201.061L166.004 215.041L145.83 198.49L108.863 221.309L79.7828 198.49L30.9966 241.983L128.612 325.463L177.334 289.364L199.548 311.44L241.404 287.24L254.223 299.52L292.083 279.314L197.444 201.082L197.422 201.061ZM248.802 282.948C247.59 281.779 243.509 278.613 243.509 278.613L196.955 305.576L186.73 282.416C185.497 281.184 181.628 278.422 181.628 278.422C181.628 278.422 174.677 283.415 173.529 284.265L128.888 317.347L40.6901 241.877L80.0379 206.776L104.931 226.302C106.078 227.195 107.481 227.662 108.863 227.662C110.011 227.662 111.18 227.343 112.222 226.706L145.32 206.266L161.965 219.928C163.134 220.884 164.558 221.373 166.004 221.373C166.875 221.373 167.768 221.203 168.597 220.821L196.402 208.455L280.667 278.124L252.182 293.337L248.781 282.948H248.802Z" fill="#FEFEFC"/>
<path d="M186.709 282.416L199.548 311.44L173.04 292.551L186.709 282.416Z" fill="#3C5382"/>
<path d="M248.802 282.948L254.202 299.499L237.854 289.279L248.802 282.948Z" fill="#3C5382"/>
<path d="M181.628 278.401L128.888 317.326L40.6899 241.877L84.8633 202.463L96.5549 211.642L166.684 266.672L181.628 278.401Z" fill="#23A7D7"/>
<path d="M243.509 278.613L196.955 305.576L186.709 282.416L154.822 257.387L124.615 233.675L114.114 225.431L151.102 202.803L161.157 211.068L186.9 232.167L193.617 237.67L237.663 273.811L243.509 278.613Z" fill="#89EFFD"/>
<path d="M237.663 273.811C237.28 275.383 236.09 276.488 233.581 276.658C230.372 276.892 225.185 274.109 221.55 273.641C217.192 273.089 212.728 273.174 208.179 273.174C204.246 273.174 199.548 276.403 195.339 275.723C193.617 275.447 190.28 273.747 188.834 273.131C186.985 272.345 184.859 271.665 182.733 269.519C180.459 267.267 180.629 268.393 179.736 265.227C179.29 263.612 179.736 259.958 180.097 258.152C180.522 255.942 181.352 253.031 182.266 251.055C183.222 248.973 185.369 247.528 187.176 245.085C189.281 242.28 189.132 240.623 192.172 238.519C192.576 238.243 193.064 237.967 193.617 237.67L237.663 273.811Z" fill="#13C09A"/>
<path d="M166.684 266.672C164.154 269.519 160.498 265.482 158.159 265.631C154.843 265.822 153.844 269.881 149.89 268.967C146.531 268.202 147.361 265.844 145.299 264.271C143.577 262.954 140.856 263.209 138.879 261.955C136.498 260.447 135.988 257.791 133.713 257.281C132.268 256.962 128.186 258.364 126.996 259.299C124.912 260.999 125.529 263.528 122.34 263.825C120.193 264.016 117.685 262.125 116.324 260.489C114.645 258.471 113.986 255.39 112.307 253.265C110.712 251.225 110.223 250.758 107.269 249.462C103.4 247.783 96.9375 239.582 93.8126 246.806C92.2608 250.397 97.8941 257.238 100.232 259.788C101.338 260.957 102.953 261.297 103.952 262.635C104.973 263.995 104.888 266.098 105.908 267.48C107.375 269.519 109.777 270.199 110.882 272.536C109.161 275.49 106.227 272.133 104.293 270.815C101.572 268.967 99.5947 268.414 96.5974 267.14C93.3024 265.737 88.9234 263.57 86.0323 261.637C83.1838 259.724 81.7383 256.75 78.9323 254.625C77.4017 253.456 73.958 252.309 73.0014 250.588C71.9173 248.612 73.0014 249.377 72.6613 247.486C72.3637 245.914 71.0457 242.174 70.8969 240.581C70.323 234.504 75.3185 226.812 78.9748 222.988C81.547 220.311 83.3964 215.7 87.3503 214.276C91.1979 212.917 93.1749 214.531 96.5548 211.642L166.684 266.672Z" fill="#058A65"/>
<path d="M186.9 232.167C186.793 232.209 186.708 232.252 186.602 232.294C185.178 232.868 183.052 232.252 181.862 232.995C180.65 233.781 180.777 234.992 179.842 235.949C177.397 238.498 174.698 238.881 170.701 239.008C165.281 239.157 167.704 238.031 165.429 235.205C164.218 233.696 163.261 234.228 161.879 233.038C156.012 228.045 161.518 220.693 156.756 215.509C157.755 214.489 159.817 212.853 161.157 211.068L186.9 232.167Z" fill="#13C09A"/>
<path d="M234.878 256.601C233.093 259.129 228.841 257.111 227.141 259.831C226.397 260.999 225.929 262.359 225.398 263.74L187.644 232.783C188.154 229.681 191.322 224.39 194.34 223.689C195.849 223.349 196.742 224.496 198.145 224.518C199.102 224.539 200.058 223.455 200.973 223.583C202.907 223.88 203.566 225.219 205.267 225.686C207.244 226.196 209.029 225.304 210.985 225.75C213.642 226.345 214.981 228.215 216.257 230.467C219.849 236.756 221.337 238.413 228.225 241.345C231.031 242.535 236.388 245.871 236.473 249.207C232.54 250.482 236.473 254.37 234.878 256.601Z" fill="#058A65"/>
<path d="M161.051 249.674C160.094 250.312 158.627 250.545 157.905 251.162C156.204 252.543 156.735 254.561 155.8 256.24C155.545 256.686 155.205 257.068 154.822 257.387L124.615 233.675C126.146 233.803 127.825 233.59 128.612 233.229C129.675 232.698 129.972 231.189 130.95 230.679C131.843 230.212 133.033 230.509 134.096 230.36C137.71 229.893 143.683 230.594 146.872 228.809C148.679 227.79 151.102 220.374 152.356 220.629C154.992 221.203 152.675 227.768 152.718 229.149C152.76 231.125 153.526 232.719 153.993 234.291C154.312 235.332 154.163 237.011 154.546 238.073C155.184 239.752 157.65 241.622 158.925 242.854C160.179 244.044 161.051 243.916 162.411 244.724C165.196 246.402 163.283 248.187 161.051 249.674Z" fill="#13C09A"/>
<path d="M237.047 199.042C237.047 183.34 224.313 170.613 208.604 170.613C192.894 170.613 180.161 183.34 180.161 199.042C180.161 214.744 208.604 262.933 208.604 262.933C208.604 262.933 237.047 214.744 237.047 199.042Z" fill="#FF6901"/>
<path d="M212.392 216.309C221.306 214.213 226.832 205.29 224.735 196.381C222.637 187.471 213.711 181.948 204.797 184.044C195.883 186.14 190.357 195.063 192.454 203.972C194.552 212.882 203.478 218.405 212.392 216.309Z" fill="white"/>
</g>
<path d="M160.134 122.643C159.87 122.307 159.624 121.971 159.396 121.635C159.168 121.299 158.952 120.963 158.748 120.627C159.384 120.027 159.936 119.517 160.404 119.097C160.872 118.665 161.262 118.281 161.574 117.945C161.886 117.609 162.12 117.285 162.276 116.973C162.432 116.661 162.51 116.319 162.51 115.947V114.705H157.92V109.935H160.386V112.455H164.976V115.587C164.976 116.331 164.868 116.991 164.652 117.567C164.436 118.143 164.118 118.689 163.698 119.205C163.29 119.709 162.786 120.237 162.186 120.789C161.586 121.341 160.902 121.959 160.134 122.643ZM168.507 118.647V114.705H166.653V112.455H171.009V118.485L168.507 118.647ZM177.322 122.193V115.857C177.322 115.509 177.226 115.233 177.034 115.029C176.842 114.813 176.578 114.705 176.242 114.705H172.858V112.455H176.764C177.724 112.455 178.468 112.725 178.996 113.265C179.524 113.805 179.788 114.555 179.788 115.515V122.031L177.322 122.193ZM181.404 122.103V119.907H187.722C187.71 119.223 187.686 118.569 187.65 117.945C187.626 117.321 187.572 116.631 187.488 115.875C187.392 115.059 186.96 114.651 186.192 114.651H184.716L184.374 116.073L185.796 116.811C185.676 117.183 185.544 117.543 185.4 117.891C185.256 118.227 185.112 118.551 184.968 118.863L181.854 117.261V116.721L182.844 112.455C183.156 112.443 183.462 112.437 183.762 112.437C184.074 112.437 184.386 112.437 184.698 112.437C185.01 112.437 185.316 112.437 185.616 112.437C185.928 112.437 186.234 112.443 186.534 112.455C188.49 112.491 189.576 113.475 189.792 115.407C189.84 115.827 189.882 116.361 189.918 117.009C189.954 117.645 189.984 118.335 190.008 119.079C190.032 119.811 190.044 120.537 190.044 121.257V122.103H181.404ZM198.44 122.445L195.488 117.675C195.188 117.831 194.966 118.035 194.822 118.287C194.678 118.527 194.582 118.869 194.534 119.313C194.51 119.565 194.48 119.961 194.444 120.501C194.42 121.041 194.396 121.587 194.372 122.139C193.748 122.175 193.112 122.193 192.464 122.193H191.834C191.846 121.593 191.864 121.059 191.888 120.591C191.912 120.123 191.93 119.775 191.942 119.547C192.002 118.803 192.164 118.173 192.428 117.657C192.704 117.141 193.148 116.715 193.76 116.379C193.388 115.863 193.034 115.347 192.698 114.831C192.374 114.315 192.068 113.799 191.78 113.283C192.14 113.055 192.506 112.845 192.878 112.653C193.262 112.449 193.658 112.251 194.066 112.059C194.474 112.731 194.894 113.415 195.326 114.111C195.77 114.807 196.238 115.497 196.73 116.181C197.114 116.085 197.39 115.953 197.558 115.785C197.738 115.617 197.852 115.359 197.9 115.011C197.936 114.819 197.966 114.573 197.99 114.273C198.014 113.961 198.038 113.637 198.062 113.301C198.098 112.965 198.122 112.671 198.134 112.419C198.41 112.395 198.686 112.383 198.962 112.383C199.238 112.371 199.49 112.365 199.718 112.365C199.946 112.365 200.126 112.371 200.258 112.383C200.402 112.383 200.564 112.383 200.744 112.383L200.582 114.543C200.522 115.371 200.306 116.013 199.934 116.469C199.574 116.925 199.04 117.285 198.332 117.549L200.762 121.383C200.354 121.599 199.958 121.797 199.574 121.977C199.19 122.157 198.812 122.313 198.44 122.445Z" fill="#7F6CFF"/>
<defs>
<linearGradient id="paint0_linear_147_1307" x1="66.7617" y1="154.983" x2="407.723" y2="154.983" gradientUnits="userSpaceOnUse">
<stop stop-color="#6DECB9"/>
<stop offset="1" stop-color="#48B3B9"/>
</linearGradient>
<clipPath id="clip0_147_1307">
<rect width="340.962" height="309.965" fill="white" transform="translate(66.7617)"/>
</clipPath>
<clipPath id="clip1_147_1307">
<rect width="146.637" height="103.335" fill="white" transform="translate(296.851 20.9053)"/>
</clipPath>
<clipPath id="clip2_147_1307">
<rect width="261.086" height="239.627" fill="white" transform="translate(30.9966 85.8365)"/>
</clipPath>
</defs>
</svg>
