<svg width="95" height="70" viewBox="0 0 95 70" fill="none" xmlns="http://www.w3.org/2000/svg">
<path d="M76.5088 6.90039C78.9209 6.90039 80.9102 8.87614 80.9102 11.2754V32.917C80.9102 33.0333 80.8937 33.144 80.8701 33.2529C81.5028 34.2453 82.0317 35.2938 82.4277 36.4473L82.5898 36.9443C83.3693 39.449 83.708 42.2898 83.7764 45.4727L83.7812 46.1816C83.7799 46.4184 83.7764 46.6571 83.7764 46.9004C83.7817 46.9754 83.7821 47.0552 83.7764 47.1299V64.0996H73.542V58.2998C73.542 57.1312 73.2553 56.5423 72.8994 56.1885C72.5434 55.8347 71.951 55.5499 70.7754 55.5498H24.9014C23.7258 55.5499 23.1334 55.8347 22.7773 56.1885C22.4214 56.5423 22.1348 57.1312 22.1348 58.2998V64.0996H11.9004V45.4727C11.9733 42.0773 12.3541 39.0713 13.249 36.4473C13.6461 35.2799 14.1705 34.2061 14.8115 33.1992V33.1934C14.7901 33.1056 14.7734 33.0155 14.7676 32.9238L14.7666 32.917V11.2754C14.7666 8.87614 16.7558 6.90039 19.168 6.90039H76.5088ZM14.9668 61.0498H19.0674V58.2998C19.0674 56.6208 19.4969 55.0711 20.5752 53.999C21.6536 52.9271 23.2126 52.5001 24.9014 52.5H70.7754C72.4642 52.5001 74.0232 52.9271 75.1016 53.999C76.1799 55.0711 76.6093 56.6208 76.6094 58.2998V61.0498H80.71V48.4248H14.9668V61.0498ZM48.0234 27.0498C47.8685 27.0718 47.7185 27.0719 47.5635 27.0498C40.382 27.0584 34.7206 27.4358 30.3037 28.1885C25.8848 28.9415 22.7185 30.069 20.5234 31.5742V31.5752C18.3141 33.0872 16.9763 34.9611 16.126 37.4473C15.3942 39.5915 15.0915 42.2339 15.0146 45.375H80.6621C80.5853 42.2339 80.2826 39.5915 79.5508 37.4473C78.7004 34.9611 77.3627 33.0872 75.1533 31.5752V31.5742C72.9583 30.0718 69.7959 28.9454 65.3848 28.1924C60.9744 27.4395 55.3216 27.0609 48.1514 27.0498H48.0234ZM19.168 9.9502C18.4163 9.9502 17.834 10.5296 17.834 11.2754V29.8115C18.1409 29.5626 18.4632 29.3218 18.7979 29.0938C19.743 28.4454 20.771 27.8398 21.9346 27.3301V21.25C21.9346 20.2009 22.6257 19.3945 23.3672 18.8955C24.1086 18.3966 25.0122 18.0538 26.1318 17.7686C28.3719 17.1979 31.5114 16.875 35.6533 16.875C39.7953 16.875 42.9347 17.1979 45.1748 17.7686H45.1758C46.2386 18.0409 47.1174 18.354 47.8379 18.8164C48.5586 18.3536 49.4386 18.041 50.502 17.7686C52.742 17.1979 55.8815 16.875 60.0234 16.875C64.1654 16.875 67.3049 17.1979 69.5449 17.7686C70.6646 18.0538 71.5682 18.3966 72.3096 18.8955C73.0511 19.3945 73.7422 20.2008 73.7422 21.25V27.3301C74.9058 27.8398 75.9337 28.4454 76.8789 29.0938C77.2135 29.3218 77.5358 29.5626 77.8428 29.8115V11.2754C77.8428 10.5296 77.2605 9.9502 76.5088 9.9502H19.168ZM35.6533 19.9248C31.6704 19.9248 28.7229 20.2589 26.8975 20.7236C25.9846 20.956 25.3647 21.2364 25.0928 21.4219L25.0918 21.4229C25.0483 21.4517 25.0202 21.4704 25.002 21.4834V26.2812C30.0877 24.7566 37.007 24.066 46.3047 24.001V21.4834C46.2864 21.4704 46.2583 21.4517 46.2148 21.4229L46.2139 21.4219C45.9419 21.2364 45.322 20.956 44.4092 20.7236C42.5838 20.2589 39.6362 19.9248 35.6533 19.9248ZM60.0234 19.9248C56.0405 19.9248 53.093 20.2589 51.2676 20.7236C50.3548 20.956 49.7348 21.2364 49.4629 21.4219L49.4619 21.4229C49.4184 21.4517 49.3903 21.4704 49.3721 21.4834V24.001C58.6697 24.066 65.5891 24.7566 70.6748 26.2812V21.4834C70.6565 21.4704 70.6285 21.4517 70.585 21.4229L70.584 21.4219C70.312 21.2364 69.6921 20.956 68.7793 20.7236C66.9539 20.2589 64.0064 19.9248 60.0234 19.9248Z" fill="white" stroke="white" stroke-width="0.2"/>
</svg>
