<svg width="397" height="362" viewBox="0 0 397 362" fill="none" xmlns="http://www.w3.org/2000/svg">
<g clip-path="url(#clip0_1_187)">
<path style="mix-blend-mode:multiply" opacity="0.4" d="M0 362H393.559C393.559 362 412.056 254.01 363.285 233.782C314.513 213.527 333.011 70.1241 272.464 22.8985C211.916 -24.3541 107.652 -2.42696 109.319 125.818C111.013 254.037 0 200.042 0 362Z" fill="url(#paint0_linear_1_187)"/>
<path d="M68.8284 151.278C67.6723 151.278 66.7313 152.222 66.7313 153.382V354.448H70.9524V153.382C70.9524 152.222 70.0114 151.278 68.8553 151.278H68.8284Z" fill="#8E9DA9"/>
<path d="M70.9255 197.344H66.7044C66.3817 197.344 66.1398 197.074 66.1398 196.778C66.1398 196.481 66.4086 196.211 66.7044 196.211H70.9255C71.2481 196.211 71.4901 196.481 71.4901 196.778C71.4901 197.074 71.2212 197.344 70.9255 197.344Z" fill="#BECCD3"/>
<path d="M71.3019 194.027H66.3817C66.0591 194.027 65.8171 193.757 65.8171 193.46C65.8171 193.164 66.086 192.894 66.3817 192.894H71.3019C71.6245 192.894 71.8665 193.164 71.8665 193.46C71.8665 193.757 71.5977 194.027 71.3019 194.027Z" fill="#BECCD3"/>
<path d="M71.8665 190.655H65.7903C65.4676 190.655 65.2256 190.386 65.2256 190.089C65.2256 189.792 65.4945 189.523 65.7903 189.523H71.8665C72.1891 189.523 72.4311 189.792 72.4311 190.089C72.4311 190.386 72.1623 190.655 71.8665 190.655Z" fill="#BECCD3"/>
<path d="M71.8665 189.523H70.9255V187.77H66.7044V189.523H65.7634C65.4408 189.523 65.1988 189.792 65.1988 190.089C65.1988 190.386 65.4676 190.656 65.7634 190.656H66.7044V192.867H66.3549C66.0323 192.867 65.7903 193.137 65.7903 193.433C65.7903 193.73 66.0591 194 66.3549 194H66.7044V196.158C66.3818 196.158 66.1398 196.427 66.1398 196.724C66.1398 197.021 66.4087 197.29 66.7044 197.29V199.583L70.9255 201.066V197.263C71.2482 197.263 71.4901 196.994 71.4901 196.697C71.4901 196.4 71.2213 196.131 70.9255 196.131V193.973H71.275C71.5977 193.973 71.8397 193.703 71.8397 193.407C71.8397 193.11 71.5708 192.84 71.275 192.84H70.9255V190.629H71.8665C72.1892 190.629 72.4312 190.359 72.4312 190.062C72.4312 189.765 72.1623 189.496 71.8665 189.496V189.523Z" fill="#1F2223"/>
<path d="M53.4764 354.475H84.1535C85.901 354.475 87.326 355.905 87.326 357.658V360.112H50.3039V357.658C50.3039 355.905 51.7288 354.475 53.4764 354.475Z" fill="#7082D4"/>
<path d="M87.326 359.33L50.3039 358.197V360.112H87.326V359.33Z" fill="#1F2223"/>
<path d="M80.013 154.326H57.6438L47.4002 187.77H90.2297L80.013 154.326Z" fill="#FF5C5C"/>
<path opacity="0.3" d="M53.2882 178.842C53.2882 178.842 53.1807 178.842 53.1 178.842C52.7774 178.734 52.5892 178.411 52.6967 178.087L59.1494 156.996C59.23 156.753 59.472 156.565 59.714 156.565H67.3228C67.6454 156.565 67.9143 156.834 67.9143 157.158C67.9143 157.482 67.6454 157.751 67.3228 157.751H60.1711L53.8528 178.411C53.7722 178.681 53.5302 178.842 53.2882 178.842Z" fill="white"/>
<path opacity="0.3" d="M68.1024 336C67.7798 336 67.5378 335.731 67.5378 335.434V217.437C67.5378 217.114 67.8067 216.871 68.1024 216.871C68.3982 216.871 68.6671 217.141 68.6671 217.437V335.434C68.6671 335.758 68.3982 336 68.1024 336Z" fill="white"/>
<path opacity="0.3" d="M82.4596 356.444H62.6984C62.3757 356.444 62.1338 356.174 62.1338 355.878C62.1338 355.581 62.4026 355.311 62.6984 355.311H82.4596C82.7823 355.311 83.0242 355.581 83.0242 355.878C83.0242 356.174 82.7554 356.444 82.4596 356.444Z" fill="white"/>
<path d="M48.7445 183.4H88.9123L88.1595 181H49.4704L48.7445 183.4Z" fill="#FF8383"/>
<path d="M47.9648 185.936H89.6651L89.4769 185.315H48.153L47.9648 185.936Z" fill="#FF8383"/>
<path d="M328.172 151.278C327.015 151.278 326.074 152.222 326.074 153.382V354.448H330.296V153.382C330.296 152.222 329.355 151.278 328.198 151.278H328.172Z" fill="#8E9DA9"/>
<path d="M330.296 197.344H326.074C325.752 197.344 325.51 197.074 325.51 196.778C325.51 196.481 325.779 196.211 326.074 196.211H330.296C330.618 196.211 330.86 196.481 330.86 196.778C330.86 197.074 330.591 197.344 330.296 197.344Z" fill="#BECCD3"/>
<path d="M330.645 194.027H325.725C325.402 194.027 325.16 193.757 325.16 193.46C325.16 193.164 325.429 192.894 325.725 192.894H330.645C330.968 192.894 331.21 193.164 331.21 193.46C331.21 193.757 330.941 194.027 330.645 194.027Z" fill="#BECCD3"/>
<path d="M331.21 190.655H325.133C324.811 190.655 324.569 190.386 324.569 190.089C324.569 189.792 324.838 189.523 325.133 189.523H331.21C331.532 189.523 331.774 189.792 331.774 190.089C331.774 190.386 331.505 190.655 331.21 190.655Z" fill="#BECCD3"/>
<path d="M331.21 189.523H330.269V187.77H326.048V189.523H325.107C324.784 189.523 324.542 189.792 324.542 190.089C324.542 190.386 324.811 190.656 325.107 190.656H326.048V192.867H325.698C325.375 192.867 325.133 193.137 325.133 193.433C325.133 193.73 325.402 194 325.698 194H326.048V196.158C325.725 196.158 325.483 196.427 325.483 196.724C325.483 197.021 325.752 197.29 326.048 197.29V199.583L330.269 201.066V197.263C330.591 197.263 330.833 196.994 330.833 196.697C330.833 196.4 330.564 196.131 330.269 196.131V193.973H330.618C330.941 193.973 331.183 193.703 331.183 193.407C331.183 193.11 330.914 192.84 330.618 192.84H330.269V190.629H331.21C331.532 190.629 331.774 190.359 331.774 190.062C331.774 189.765 331.505 189.496 331.21 189.496V189.523Z" fill="#1F2223"/>
<path d="M312.847 354.475H343.524C345.271 354.475 346.696 355.905 346.696 357.658V360.112H309.674V357.658C309.674 355.905 311.099 354.475 312.847 354.475Z" fill="#7082D4"/>
<path d="M346.696 359.33L309.674 358.197V360.112H346.696V359.33Z" fill="#1F2223"/>
<path d="M339.356 154.326H317.014L306.77 187.77H349.6L339.356 154.326Z" fill="#FF5C5C"/>
<path opacity="0.3" d="M312.631 178.842C312.631 178.842 312.524 178.842 312.443 178.842C312.121 178.734 311.932 178.411 312.04 178.087L318.493 156.996C318.573 156.753 318.815 156.565 319.057 156.565H326.666C326.989 156.565 327.257 156.834 327.257 157.158C327.257 157.482 326.989 157.751 326.666 157.751H319.514L313.196 178.411C313.115 178.681 312.873 178.842 312.631 178.842Z" fill="white"/>
<path opacity="0.3" d="M327.446 336C327.123 336 326.881 335.731 326.881 335.434V217.437C326.881 217.114 327.15 216.871 327.446 216.871C327.741 216.871 328.01 217.141 328.01 217.437V335.434C328.01 335.758 327.741 336 327.446 336Z" fill="white"/>
<path opacity="0.3" d="M341.803 356.444H322.042C321.719 356.444 321.477 356.174 321.477 355.878C321.477 355.581 321.746 355.311 322.042 355.311H341.803C342.125 355.311 342.367 355.581 342.367 355.878C342.367 356.174 342.099 356.444 341.803 356.444Z" fill="white"/>
<path d="M308.088 183.4H348.255L347.53 181H308.84L308.088 183.4Z" fill="#FF8383"/>
<path d="M307.335 185.936H349.035L348.847 185.315H307.523L307.335 185.936Z" fill="#FF8383"/>
<path d="M306.313 198.369H90.7137V305.281H306.313V198.369Z" fill="#BECCD3"/>
<path d="M298.247 206.46H98.7526V305.254H298.247V206.46Z" fill="#8E9DA9"/>
<path d="M108.459 216.385C107.894 216.385 107.437 216.844 107.437 217.41C107.437 217.977 107.894 218.435 108.459 218.435C109.023 218.435 109.48 217.977 109.48 217.41C109.48 216.844 109.023 216.385 108.459 216.385Z" fill="#BECCD3"/>
<path d="M123.461 216.385C122.896 216.385 122.439 216.844 122.439 217.41C122.439 217.977 122.896 218.435 123.461 218.435C124.026 218.435 124.483 217.977 124.483 217.41C124.483 216.844 124.026 216.385 123.461 216.385Z" fill="#BECCD3"/>
<path d="M138.49 216.385C137.926 216.385 137.469 216.844 137.469 217.41C137.469 217.977 137.926 218.435 138.49 218.435C139.055 218.435 139.512 217.977 139.512 217.41C139.512 216.844 139.055 216.385 138.49 216.385Z" fill="#BECCD3"/>
<path d="M153.493 216.385C152.928 216.385 152.471 216.844 152.471 217.41C152.471 217.977 152.928 218.435 153.493 218.435C154.057 218.435 154.514 217.977 154.514 217.41C154.514 216.844 154.057 216.385 153.493 216.385Z" fill="#BECCD3"/>
<path d="M168.495 216.385C167.931 216.385 167.473 216.844 167.473 217.41C167.473 217.977 167.931 218.435 168.495 218.435C169.06 218.435 169.517 217.977 169.517 217.41C169.517 216.844 169.06 216.385 168.495 216.385Z" fill="#BECCD3"/>
<path d="M183.498 216.385C182.933 216.385 182.476 216.844 182.476 217.41C182.476 217.977 182.933 218.435 183.498 218.435C184.062 218.435 184.519 217.977 184.519 217.41C184.519 216.844 184.062 216.385 183.498 216.385Z" fill="#BECCD3"/>
<path d="M198.5 216.385C197.935 216.385 197.478 216.844 197.478 217.41C197.478 217.977 197.935 218.435 198.5 218.435C199.065 218.435 199.522 217.977 199.522 217.41C199.522 216.844 199.065 216.385 198.5 216.385Z" fill="#BECCD3"/>
<path d="M213.502 216.385C212.938 216.385 212.481 216.844 212.481 217.41C212.481 217.977 212.938 218.435 213.502 218.435C214.067 218.435 214.524 217.977 214.524 217.41C214.524 216.844 214.067 216.385 213.502 216.385Z" fill="#BECCD3"/>
<path d="M228.505 216.385C227.94 216.385 227.483 216.844 227.483 217.41C227.483 217.977 227.94 218.435 228.505 218.435C229.069 218.435 229.527 217.977 229.527 217.41C229.527 216.844 229.069 216.385 228.505 216.385Z" fill="#BECCD3"/>
<path d="M243.507 216.385C242.943 216.385 242.486 216.844 242.486 217.41C242.486 217.977 242.943 218.435 243.507 218.435C244.072 218.435 244.529 217.977 244.529 217.41C244.529 216.844 244.072 216.385 243.507 216.385Z" fill="#BECCD3"/>
<path d="M258.537 216.385C257.972 216.385 257.515 216.844 257.515 217.41C257.515 217.977 257.972 218.435 258.537 218.435C259.101 218.435 259.558 217.977 259.558 217.41C259.558 216.844 259.101 216.385 258.537 216.385Z" fill="#BECCD3"/>
<path d="M273.539 216.385C272.974 216.385 272.517 216.844 272.517 217.41C272.517 217.977 272.974 218.435 273.539 218.435C274.104 218.435 274.561 217.977 274.561 217.41C274.561 216.844 274.104 216.385 273.539 216.385Z" fill="#BECCD3"/>
<path d="M288.542 218.435C289.106 218.435 289.563 217.977 289.563 217.41C289.563 216.844 289.106 216.385 288.542 216.385C287.977 216.385 287.52 216.844 287.52 217.41C287.52 217.977 287.977 218.435 288.542 218.435Z" fill="#BECCD3"/>
<path d="M115.96 228.468C115.395 228.468 114.938 228.927 114.938 229.493C114.938 230.06 115.395 230.518 115.96 230.518C116.525 230.518 116.982 230.06 116.982 229.493C116.982 228.927 116.525 228.468 115.96 228.468Z" fill="#BECCD3"/>
<path d="M130.962 228.468C130.398 228.468 129.94 228.927 129.94 229.493C129.94 230.06 130.398 230.518 130.962 230.518C131.527 230.518 131.984 230.06 131.984 229.493C131.984 228.927 131.527 228.468 130.962 228.468Z" fill="#BECCD3"/>
<path d="M145.991 228.468C145.427 228.468 144.97 228.927 144.97 229.493C144.97 230.06 145.427 230.518 145.991 230.518C146.556 230.518 147.013 230.06 147.013 229.493C147.013 228.927 146.556 228.468 145.991 228.468Z" fill="#BECCD3"/>
<path d="M160.994 228.468C160.429 228.468 159.972 228.927 159.972 229.493C159.972 230.06 160.429 230.518 160.994 230.518C161.559 230.518 162.016 230.06 162.016 229.493C162.016 228.927 161.559 228.468 160.994 228.468Z" fill="#BECCD3"/>
<path d="M175.996 228.468C175.432 228.468 174.975 228.927 174.975 229.493C174.975 230.06 175.432 230.518 175.996 230.518C176.561 230.518 177.018 230.06 177.018 229.493C177.018 228.927 176.561 228.468 175.996 228.468Z" fill="#BECCD3"/>
<path d="M190.999 228.468C190.434 228.468 189.977 228.927 189.977 229.493C189.977 230.06 190.434 230.518 190.999 230.518C191.563 230.518 192.02 230.06 192.02 229.493C192.02 228.927 191.563 228.468 190.999 228.468Z" fill="#BECCD3"/>
<path d="M206.001 228.468C205.437 228.468 204.98 228.927 204.98 229.493C204.98 230.06 205.437 230.518 206.001 230.518C206.566 230.518 207.023 230.06 207.023 229.493C207.023 228.927 206.566 228.468 206.001 228.468Z" fill="#BECCD3"/>
<path d="M221.004 228.468C220.439 228.468 219.982 228.927 219.982 229.493C219.982 230.06 220.439 230.518 221.004 230.518C221.569 230.518 222.026 230.06 222.026 229.493C222.026 228.927 221.569 228.468 221.004 228.468Z" fill="#BECCD3"/>
<path d="M236.006 228.468C235.441 228.468 234.984 228.927 234.984 229.493C234.984 230.06 235.441 230.518 236.006 230.518C236.57 230.518 237.028 230.06 237.028 229.493C237.028 228.927 236.57 228.468 236.006 228.468Z" fill="#BECCD3"/>
<path d="M251.035 228.468C250.471 228.468 250.014 228.927 250.014 229.493C250.014 230.06 250.471 230.518 251.035 230.518C251.6 230.518 252.057 230.06 252.057 229.493C252.057 228.927 251.6 228.468 251.035 228.468Z" fill="#BECCD3"/>
<path d="M266.038 228.468C265.473 228.468 265.016 228.927 265.016 229.493C265.016 230.06 265.473 230.518 266.038 230.518C266.603 230.518 267.06 230.06 267.06 229.493C267.06 228.927 266.603 228.468 266.038 228.468Z" fill="#BECCD3"/>
<path d="M281.04 228.468C280.476 228.468 280.019 228.927 280.019 229.493C280.019 230.06 280.476 230.518 281.04 230.518C281.605 230.518 282.062 230.06 282.062 229.493C282.062 228.927 281.605 228.468 281.04 228.468Z" fill="#BECCD3"/>
<path d="M108.459 245.622C109.023 245.622 109.48 245.163 109.48 244.597C109.48 244.031 109.023 243.572 108.459 243.572C107.894 243.572 107.437 244.031 107.437 244.597C107.437 245.163 107.894 245.622 108.459 245.622Z" fill="#BECCD3"/>
<path d="M123.461 243.572C122.896 243.572 122.439 244.03 122.439 244.597C122.439 245.163 122.896 245.622 123.461 245.622C124.026 245.622 124.483 245.163 124.483 244.597C124.483 244.03 124.026 243.572 123.461 243.572Z" fill="#BECCD3"/>
<path d="M138.49 243.572C137.926 243.572 137.469 244.03 137.469 244.597C137.469 245.163 137.926 245.622 138.49 245.622C139.055 245.622 139.512 245.163 139.512 244.597C139.512 244.03 139.055 243.572 138.49 243.572Z" fill="#BECCD3"/>
<path d="M153.493 245.622C154.057 245.622 154.514 245.163 154.514 244.597C154.514 244.031 154.057 243.572 153.493 243.572C152.928 243.572 152.471 244.031 152.471 244.597C152.471 245.163 152.928 245.622 153.493 245.622Z" fill="#BECCD3"/>
<path d="M168.495 243.572C167.931 243.572 167.473 244.03 167.473 244.597C167.473 245.163 167.931 245.622 168.495 245.622C169.06 245.622 169.517 245.163 169.517 244.597C169.517 244.03 169.06 243.572 168.495 243.572Z" fill="#BECCD3"/>
<path d="M183.498 243.572C182.933 243.572 182.476 244.03 182.476 244.597C182.476 245.163 182.933 245.622 183.498 245.622C184.062 245.622 184.519 245.163 184.519 244.597C184.519 244.03 184.062 243.572 183.498 243.572Z" fill="#BECCD3"/>
<path d="M198.5 245.622C199.064 245.622 199.522 245.163 199.522 244.597C199.522 244.031 199.064 243.572 198.5 243.572C197.936 243.572 197.478 244.031 197.478 244.597C197.478 245.163 197.936 245.622 198.5 245.622Z" fill="#BECCD3"/>
<path d="M213.502 243.572C212.938 243.572 212.481 244.03 212.481 244.597C212.481 245.163 212.938 245.622 213.502 245.622C214.067 245.622 214.524 245.163 214.524 244.597C214.524 244.03 214.067 243.572 213.502 243.572Z" fill="#BECCD3"/>
<path d="M228.505 243.572C227.94 243.572 227.483 244.03 227.483 244.597C227.483 245.163 227.94 245.622 228.505 245.622C229.069 245.622 229.527 245.163 229.527 244.597C229.527 244.03 229.069 243.572 228.505 243.572Z" fill="#BECCD3"/>
<path d="M243.507 245.622C244.072 245.622 244.529 245.163 244.529 244.597C244.529 244.031 244.072 243.572 243.507 243.572C242.943 243.572 242.486 244.031 242.486 244.597C242.486 245.163 242.943 245.622 243.507 245.622Z" fill="#BECCD3"/>
<path d="M258.537 243.572C257.972 243.572 257.515 244.03 257.515 244.597C257.515 245.163 257.972 245.622 258.537 245.622C259.101 245.622 259.558 245.163 259.558 244.597C259.558 244.03 259.101 243.572 258.537 243.572Z" fill="#BECCD3"/>
<path d="M273.539 243.572C272.974 243.572 272.517 244.03 272.517 244.597C272.517 245.163 272.974 245.622 273.539 245.622C274.104 245.622 274.561 245.163 274.561 244.597C274.561 244.03 274.104 243.572 273.539 243.572Z" fill="#BECCD3"/>
<path d="M288.542 245.622C289.106 245.622 289.563 245.163 289.563 244.597C289.563 244.031 289.106 243.572 288.542 243.572C287.977 243.572 287.52 244.031 287.52 244.597C287.52 245.163 287.977 245.622 288.542 245.622Z" fill="#BECCD3"/>
<path d="M115.96 255.655C115.395 255.655 114.938 256.113 114.938 256.68C114.938 257.246 115.395 257.704 115.96 257.704C116.525 257.704 116.982 257.246 116.982 256.68C116.982 256.113 116.525 255.655 115.96 255.655Z" fill="#BECCD3"/>
<path d="M130.962 255.655C130.398 255.655 129.94 256.113 129.94 256.68C129.94 257.246 130.398 257.704 130.962 257.704C131.527 257.704 131.984 257.246 131.984 256.68C131.984 256.113 131.527 255.655 130.962 255.655Z" fill="#BECCD3"/>
<path d="M145.991 255.655C145.427 255.655 144.97 256.113 144.97 256.68C144.97 257.246 145.427 257.704 145.991 257.704C146.556 257.704 147.013 257.246 147.013 256.68C147.013 256.113 146.556 255.655 145.991 255.655Z" fill="#BECCD3"/>
<path d="M160.994 255.655C160.429 255.655 159.972 256.113 159.972 256.68C159.972 257.246 160.429 257.704 160.994 257.704C161.559 257.704 162.016 257.246 162.016 256.68C162.016 256.113 161.559 255.655 160.994 255.655Z" fill="#BECCD3"/>
<path d="M175.996 255.655C175.432 255.655 174.975 256.113 174.975 256.68C174.975 257.246 175.432 257.704 175.996 257.704C176.561 257.704 177.018 257.246 177.018 256.68C177.018 256.113 176.561 255.655 175.996 255.655Z" fill="#BECCD3"/>
<path d="M190.999 255.655C190.434 255.655 189.977 256.113 189.977 256.68C189.977 257.246 190.434 257.704 190.999 257.704C191.563 257.704 192.02 257.246 192.02 256.68C192.02 256.113 191.563 255.655 190.999 255.655Z" fill="#BECCD3"/>
<path d="M206.001 255.655C205.437 255.655 204.98 256.113 204.98 256.68C204.98 257.246 205.437 257.704 206.001 257.704C206.566 257.704 207.023 257.246 207.023 256.68C207.023 256.113 206.566 255.655 206.001 255.655Z" fill="#BECCD3"/>
<path d="M221.004 255.655C220.439 255.655 219.982 256.113 219.982 256.68C219.982 257.246 220.439 257.704 221.004 257.704C221.569 257.704 222.026 257.246 222.026 256.68C222.026 256.113 221.569 255.655 221.004 255.655Z" fill="#BECCD3"/>
<path d="M236.006 255.655C235.441 255.655 234.984 256.113 234.984 256.68C234.984 257.246 235.441 257.704 236.006 257.704C236.57 257.704 237.028 257.246 237.028 256.68C237.028 256.113 236.57 255.655 236.006 255.655Z" fill="#BECCD3"/>
<path d="M251.035 255.655C250.471 255.655 250.014 256.113 250.014 256.68C250.014 257.246 250.471 257.704 251.035 257.704C251.6 257.704 252.057 257.246 252.057 256.68C252.057 256.113 251.6 255.655 251.035 255.655Z" fill="#BECCD3"/>
<path d="M266.038 255.655C265.473 255.655 265.016 256.113 265.016 256.68C265.016 257.246 265.473 257.704 266.038 257.704C266.603 257.704 267.06 257.246 267.06 256.68C267.06 256.113 266.603 255.655 266.038 255.655Z" fill="#BECCD3"/>
<path d="M281.04 255.655C280.476 255.655 280.019 256.113 280.019 256.68C280.019 257.246 280.476 257.704 281.04 257.704C281.605 257.704 282.062 257.246 282.062 256.68C282.062 256.113 281.605 255.655 281.04 255.655Z" fill="#BECCD3"/>
<path d="M108.459 270.758C107.894 270.758 107.437 271.217 107.437 271.783C107.437 272.349 107.894 272.808 108.459 272.808C109.023 272.808 109.48 272.349 109.48 271.783C109.48 271.217 109.023 270.758 108.459 270.758Z" fill="#BECCD3"/>
<path d="M123.461 270.758C122.896 270.758 122.439 271.217 122.439 271.783C122.439 272.349 122.896 272.808 123.461 272.808C124.026 272.808 124.483 272.349 124.483 271.783C124.483 271.217 124.026 270.758 123.461 270.758Z" fill="#BECCD3"/>
<path d="M138.49 270.758C137.926 270.758 137.469 271.217 137.469 271.783C137.469 272.349 137.926 272.808 138.49 272.808C139.055 272.808 139.512 272.349 139.512 271.783C139.512 271.217 139.055 270.758 138.49 270.758Z" fill="#BECCD3"/>
<path d="M153.493 270.758C152.928 270.758 152.471 271.217 152.471 271.783C152.471 272.349 152.928 272.808 153.493 272.808C154.057 272.808 154.514 272.349 154.514 271.783C154.514 271.217 154.057 270.758 153.493 270.758Z" fill="#BECCD3"/>
<path d="M168.495 270.758C167.931 270.758 167.473 271.217 167.473 271.783C167.473 272.349 167.931 272.808 168.495 272.808C169.06 272.808 169.517 272.349 169.517 271.783C169.517 271.217 169.06 270.758 168.495 270.758Z" fill="#BECCD3"/>
<path d="M183.498 270.758C182.933 270.758 182.476 271.217 182.476 271.783C182.476 272.349 182.933 272.808 183.498 272.808C184.062 272.808 184.519 272.349 184.519 271.783C184.519 271.217 184.062 270.758 183.498 270.758Z" fill="#BECCD3"/>
<path d="M198.5 270.758C197.935 270.758 197.478 271.217 197.478 271.783C197.478 272.349 197.935 272.808 198.5 272.808C199.065 272.808 199.522 272.349 199.522 271.783C199.522 271.217 199.065 270.758 198.5 270.758Z" fill="#BECCD3"/>
<path d="M213.502 270.758C212.938 270.758 212.481 271.217 212.481 271.783C212.481 272.349 212.938 272.808 213.502 272.808C214.067 272.808 214.524 272.349 214.524 271.783C214.524 271.217 214.067 270.758 213.502 270.758Z" fill="#BECCD3"/>
<path d="M228.505 270.758C227.94 270.758 227.483 271.217 227.483 271.783C227.483 272.349 227.94 272.808 228.505 272.808C229.069 272.808 229.527 272.349 229.527 271.783C229.527 271.217 229.069 270.758 228.505 270.758Z" fill="#BECCD3"/>
<path d="M243.507 270.758C242.943 270.758 242.486 271.217 242.486 271.783C242.486 272.349 242.943 272.808 243.507 272.808C244.072 272.808 244.529 272.349 244.529 271.783C244.529 271.217 244.072 270.758 243.507 270.758Z" fill="#BECCD3"/>
<path d="M258.537 270.758C257.972 270.758 257.515 271.217 257.515 271.783C257.515 272.349 257.972 272.808 258.537 272.808C259.101 272.808 259.558 272.349 259.558 271.783C259.558 271.217 259.101 270.758 258.537 270.758Z" fill="#BECCD3"/>
<path d="M273.539 270.758C272.974 270.758 272.517 271.217 272.517 271.783C272.517 272.349 272.974 272.808 273.539 272.808C274.104 272.808 274.561 272.349 274.561 271.783C274.561 271.217 274.104 270.758 273.539 270.758Z" fill="#BECCD3"/>
<path d="M288.542 270.758C287.977 270.758 287.52 271.217 287.52 271.783C287.52 272.349 287.977 272.808 288.542 272.808C289.106 272.808 289.563 272.349 289.563 271.783C289.563 271.217 289.106 270.758 288.542 270.758Z" fill="#BECCD3"/>
<path d="M298.247 206.46H98.7526V207.944L298.247 209.885V206.46Z" fill="#1F2223"/>
<path d="M120.719 346.141H90.7137L93.698 359.114C93.8325 359.707 94.3433 360.112 94.9348 360.112H116.471C117.062 360.112 117.573 359.707 117.707 359.114L120.692 346.141H120.719Z" fill="#5C6EC7"/>
<path d="M90.7137 346.141H120.719L119.562 351.05L91.0363 347.544L90.7137 346.141Z" fill="#1F2223"/>
<path d="M306.286 346.141H276.281L279.266 359.114C279.4 359.707 279.911 360.112 280.503 360.112H302.038C302.63 360.112 303.141 359.707 303.275 359.114L306.259 346.141H306.286Z" fill="#5C6EC7"/>
<path d="M276.308 346.141H306.286L305.157 351.05L276.631 347.544L276.308 346.141Z" fill="#1F2223"/>
<path d="M320.939 305.281H76.0876V346.141H320.939V305.281Z" fill="#7082D4"/>
<path d="M309.728 282.841H87.2723C85.1341 282.841 83.4007 284.58 83.4007 286.725V301.397C83.4007 303.542 85.1341 305.281 87.2723 305.281H309.728C311.866 305.281 313.599 303.542 313.599 301.397V286.725C313.599 284.58 311.866 282.841 309.728 282.841Z" fill="#FF5C5C"/>
<path d="M83.8577 303.204C84.503 304.445 85.7935 305.281 87.2723 305.281H309.728C311.879 305.281 313.599 303.555 313.599 301.397V300.183L83.8577 303.204Z" fill="#1F2223"/>
<path d="M181.831 312.077H310.024" stroke="#5C6EC7" stroke-width="1.29" stroke-miterlimit="10"/>
<path d="M158.574 312.077H177.018" stroke="#5C6EC7" stroke-width="1.29" stroke-miterlimit="10"/>
<path d="M116.148 312.077H152.417" stroke="#5C6EC7" stroke-width="1.29" stroke-miterlimit="10"/>
<path d="M76.0876 312.077H110.771" stroke="#5C6EC7" stroke-width="1.29" stroke-miterlimit="10"/>
<path d="M280.61 318.901H320.912" stroke="#5C6EC7" stroke-width="1.29" stroke-miterlimit="10"/>
<path d="M144.782 318.901H271.98" stroke="#5C6EC7" stroke-width="1.29" stroke-miterlimit="10"/>
<path d="M76.0876 318.901H139.942" stroke="#5C6EC7" stroke-width="1.29" stroke-miterlimit="10"/>
<path d="M187.88 325.697H320.912" stroke="#5C6EC7" stroke-width="1.29" stroke-miterlimit="10"/>
<path d="M103.081 325.697H181.831" stroke="#5C6EC7" stroke-width="1.29" stroke-miterlimit="10"/>
<path d="M76.0876 325.697H95.9565" stroke="#5C6EC7" stroke-width="1.29" stroke-miterlimit="10"/>
<path d="M237.646 332.521H320.912" stroke="#5C6EC7" stroke-width="1.29" stroke-miterlimit="10"/>
<path d="M218.073 332.521H232.215" stroke="#5C6EC7" stroke-width="1.29" stroke-miterlimit="10"/>
<path d="M76.0876 332.521H213.476" stroke="#5C6EC7" stroke-width="1.29" stroke-miterlimit="10"/>
<path d="M294.618 339.318H320.912" stroke="#5C6EC7" stroke-width="1.29" stroke-miterlimit="10"/>
<path d="M144.298 339.318H290.155" stroke="#5C6EC7" stroke-width="1.29" stroke-miterlimit="10"/>
<path d="M76.0876 339.318H136.931" stroke="#5C6EC7" stroke-width="1.29" stroke-miterlimit="10"/>
<path opacity="0.2" d="M279.158 308.086H79.0989C78.83 308.086 78.6149 307.87 78.6149 307.6C78.6149 307.33 78.83 307.115 79.0989 307.115H279.158C279.427 307.115 279.642 307.33 279.642 307.6C279.642 307.87 279.427 308.086 279.158 308.086Z" fill="white"/>
<path opacity="0.2" d="M287.896 285.565H87.8368C87.568 285.565 87.3529 285.349 87.3529 285.08C87.3529 284.81 87.568 284.594 87.8368 284.594H287.896C288.165 284.594 288.38 284.81 288.38 285.08C288.38 285.349 288.165 285.565 287.896 285.565Z" fill="white"/>
<path opacity="0.3" d="M294.403 201.147H94.3433C94.0745 201.147 93.8594 200.931 93.8594 200.661C93.8594 200.392 94.0745 200.176 94.3433 200.176H294.403C294.672 200.176 294.887 200.392 294.887 200.661C294.887 200.931 294.672 201.147 294.403 201.147Z" fill="white"/>
<path d="M196 272.619C197.882 259.916 197.855 248.238 196 235.561C196 235.561 196.053 235.561 196.08 235.508C197.236 234.213 197.425 231.192 195.704 229.682C194.01 228.225 191.241 228.792 190.112 230.033C165.484 228.549 141.071 228.549 116.471 230.033C115.314 228.765 112.545 228.225 110.878 229.682C109.158 231.165 109.346 234.186 110.502 235.508C110.502 235.508 110.556 235.535 110.582 235.561C108.727 248.238 108.7 259.889 110.582 272.619C110.582 272.619 110.529 272.619 110.502 272.673C109.346 273.968 109.158 276.988 110.878 278.499C112.572 279.955 115.341 279.389 116.471 278.148C141.098 279.632 165.511 279.632 190.112 278.148C191.268 279.416 194.037 279.982 195.704 278.499C197.425 277.015 197.236 273.995 196.08 272.673C196.08 272.673 196.026 272.646 196 272.619Z" fill="#ECF4F8"/>
<path d="M195.704 276.8C194.01 278.256 191.241 277.69 190.112 276.449C165.484 277.932 141.071 277.932 116.471 276.449C115.314 277.717 112.545 278.283 110.878 276.8C110.206 276.206 109.83 275.397 109.695 274.561C109.453 275.937 109.776 277.528 110.878 278.499C112.572 279.955 115.341 279.389 116.471 278.148C141.098 279.632 165.511 279.632 190.112 278.148C191.268 279.416 194.037 279.982 195.704 278.499C196.806 277.528 197.129 275.91 196.887 274.561C196.726 275.424 196.349 276.233 195.704 276.8Z" fill="#1F2223"/>
<path d="M116.605 233.754C116.121 233.754 115.718 233.377 115.691 232.891C115.664 232.379 116.04 231.947 116.551 231.92C128.757 231.192 141.125 230.815 153.278 230.815C163.602 230.815 174.141 231.084 184.573 231.624C185.084 231.624 185.46 232.082 185.433 232.595C185.433 233.107 184.976 233.512 184.465 233.458C174.061 232.918 163.575 232.649 153.278 232.649C141.179 232.649 128.838 233.026 116.659 233.754C116.659 233.754 116.632 233.754 116.605 233.754Z" fill="white"/>
<path d="M287.278 272.619C289.16 259.916 289.133 248.238 287.278 235.561C287.278 235.561 287.332 235.561 287.359 235.508C288.515 234.213 288.703 231.192 286.982 229.682C285.288 228.225 282.519 228.792 281.39 230.033C256.762 228.549 232.35 228.549 207.749 230.033C206.593 228.765 203.823 228.225 202.157 229.682C200.436 231.165 200.624 234.186 201.78 235.508C201.78 235.508 201.834 235.535 201.861 235.561C200.006 248.238 199.979 259.889 201.861 272.619C201.861 272.619 201.807 272.619 201.78 272.673C200.624 273.968 200.436 276.988 202.157 278.499C203.85 279.955 206.62 279.389 207.749 278.148C232.377 279.632 256.789 279.632 281.39 278.148C282.546 279.416 285.315 279.982 286.982 278.499C288.703 277.015 288.515 273.995 287.359 272.673C287.359 272.673 287.305 272.646 287.278 272.619Z" fill="#ECF4F8"/>
<path d="M286.982 276.8C285.288 278.256 282.519 277.69 281.39 276.449C256.762 277.932 232.35 277.932 207.749 276.449C206.593 277.717 203.823 278.283 202.157 276.8C201.484 276.206 201.108 275.397 200.974 274.561C200.732 275.937 201.054 277.528 202.157 278.499C203.85 279.955 206.62 279.389 207.749 278.148C232.376 279.632 256.789 279.632 281.39 278.148C282.546 279.416 285.315 279.982 286.982 278.499C288.084 277.528 288.407 275.91 288.165 274.561C288.004 275.424 287.627 276.233 286.982 276.8Z" fill="#1F2223"/>
<path d="M207.883 233.754C207.399 233.754 206.996 233.377 206.969 232.891C206.942 232.379 207.319 231.947 207.829 231.92C220.036 231.192 232.403 230.815 244.556 230.815C254.88 230.815 265.419 231.084 275.851 231.624C276.362 231.624 276.739 232.082 276.712 232.595C276.712 233.107 276.255 233.512 275.744 233.458C265.339 232.918 254.853 232.649 244.556 232.649C232.457 232.649 220.116 233.026 207.937 233.754C207.937 233.754 207.91 233.754 207.883 233.754Z" fill="white"/>
<path d="M300.049 279.362H100.957C98.0805 279.362 95.3381 280.629 93.483 282.814H303.49C303.49 280.899 301.958 279.362 300.049 279.362Z" fill="white"/>
</g>
<defs>
<linearGradient id="paint0_linear_1_187" x1="0" y1="181" x2="397" y2="181" gradientUnits="userSpaceOnUse">
<stop stop-color="#6DECB9"/>
<stop offset="1" stop-color="#48B3B9"/>
</linearGradient>
<clipPath id="clip0_1_187">
<rect width="397" height="362" fill="white"/>
</clipPath>
</defs>
</svg>
