<svg width="307" height="279" viewBox="0 0 307 279" fill="none" xmlns="http://www.w3.org/2000/svg">
<g clip-path="url(#clip0_1_9)">
<path d="M191.015 278.709H75.9971C44.9926 278.709 17.162 258.458 7.23783 228.046C7.01539 227.362 6.79295 226.66 6.57051 225.959C-2.0105 198.181 -6.67316 165.82 21.8589 122.562C50.391 79.3051 30.8164 38.7247 67.5017 23.9549C104.187 9.1852 133.951 27.6067 175.727 9.66413C217.503 -8.27849 301.071 -7.21801 306.162 65.5873C311.261 138.393 290.873 135.228 299.026 159.491C307.18 183.762 334.694 285.047 191.007 278.718L191.015 278.709Z" fill="#DFF6F1"/>
<path d="M200.152 40.8627H110.689C102.68 40.8627 96.1877 47.3528 96.1877 55.3587V251.582C96.1877 259.587 102.68 266.078 110.689 266.078H200.152C208.161 266.078 214.654 259.587 214.654 251.582V55.3587C214.654 47.3528 208.161 40.8627 200.152 40.8627Z" fill="#1B0050"/>
<path d="M201.008 46.4473H109.825C105.128 46.4473 101.321 50.2533 101.321 54.9482V251.992C101.321 256.687 105.128 260.493 109.825 260.493H201.008C205.704 260.493 209.512 256.687 209.512 251.992V54.9482C209.512 50.2533 205.704 46.4473 201.008 46.4473Z" fill="white"/>
<path d="M129.81 43.6593H181.459V51.2879C181.459 55.7265 177.857 59.3356 173.408 59.3356H137.433C132.993 59.3356 129.383 55.7351 129.383 51.2879V44.0869C129.383 43.8475 129.571 43.6593 129.81 43.6593Z" fill="#1B0050"/>
<path opacity="0.35" d="M242.527 87.4724H129.827C126.166 87.4724 123.197 90.44 123.197 94.1004V152.726C123.197 156.386 126.166 159.354 129.827 159.354H242.527C246.189 159.354 249.157 156.386 249.157 152.726V94.1004C249.157 90.44 246.189 87.4724 242.527 87.4724Z" fill="#88CCFC"/>
<g style="mix-blend-mode:multiply">
<path d="M126.91 85.1719H239.61C243.271 85.1719 246.24 88.1395 246.24 91.7999V150.426C246.24 154.086 243.271 157.054 239.61 157.054H126.91C123.248 157.054 120.28 154.086 120.28 150.426V91.7999C120.28 88.1395 123.248 85.1719 126.91 85.1719Z" fill="#00BAC7"/>
</g>
<path d="M246.24 91.7999C246.24 88.1395 243.271 85.1719 239.61 85.1719H126.91C123.248 85.1719 120.28 88.1395 120.28 91.7999V92.8347C134.071 93.459 160.806 97.9831 179.457 121.912C200.922 149.459 229.762 146.765 246.24 140.035V91.7999Z" fill="url(#paint0_linear_1_9)"/>
<path d="M148.889 111.975H133.155C131.762 111.975 130.632 113.104 130.632 114.498V122.733C130.632 124.127 131.762 125.256 133.155 125.256H148.889C150.283 125.256 151.413 124.127 151.413 122.733V114.498C151.413 113.104 150.283 111.975 148.889 111.975Z" fill="white"/>
<path d="M237.582 91.5432H214.799C214.223 91.5432 213.755 92.0103 213.755 92.5866V96.9739C213.755 97.5501 214.223 98.0173 214.799 98.0173H237.582C238.158 98.0173 238.626 97.5501 238.626 96.9739V92.5866C238.626 92.0103 238.158 91.5432 237.582 91.5432Z" fill="#1B0050"/>
<path d="M151.584 136.477H132.086C130.871 136.477 129.879 135.493 129.879 134.27C129.879 133.056 130.863 132.064 132.086 132.064H151.584C152.798 132.064 153.791 133.047 153.791 134.27C153.791 135.485 152.807 136.477 151.584 136.477Z" fill="white"/>
<path d="M179.183 136.477H159.686C158.471 136.477 157.478 135.493 157.478 134.27C157.478 133.056 158.462 132.064 159.686 132.064H179.183C180.398 132.064 181.39 133.047 181.39 134.27C181.39 135.485 180.407 136.477 179.183 136.477Z" fill="white"/>
<path d="M206.988 136.477H187.49C186.275 136.477 185.283 135.493 185.283 134.27C185.283 133.056 186.267 132.064 187.49 132.064H206.988C208.203 132.064 209.195 133.047 209.195 134.27C209.195 135.485 208.211 136.477 206.988 136.477Z" fill="white"/>
<path d="M234.588 136.477H215.09C213.875 136.477 212.883 135.493 212.883 134.27C212.883 133.056 213.866 132.064 215.09 132.064H234.588C235.802 132.064 236.795 133.047 236.795 134.27C236.795 135.485 235.811 136.477 234.588 136.477Z" fill="white"/>
<path d="M157.743 151.349H132.385C131.641 151.349 131.042 150.75 131.042 150.006C131.042 149.262 131.641 148.664 132.385 148.664H157.743C158.488 148.664 159.087 149.262 159.087 150.006C159.087 150.75 158.488 151.349 157.743 151.349Z" fill="#1B0050"/>
<path d="M234.519 151.349H222.003C221.258 151.349 220.659 150.75 220.659 150.006C220.659 149.262 221.258 148.664 222.003 148.664H234.519C235.263 148.664 235.862 149.262 235.862 150.006C235.862 150.75 235.263 151.349 234.519 151.349Z" fill="#1B0050"/>
<mask id="mask0_1_9" style="mask-type:luminance" maskUnits="userSpaceOnUse" x="130" y="111" width="22" height="15">
<path d="M148.889 111.975H133.155C131.762 111.975 130.632 113.104 130.632 114.498V122.733C130.632 124.127 131.762 125.256 133.155 125.256H148.889C150.283 125.256 151.413 124.127 151.413 122.733V114.498C151.413 113.104 150.283 111.975 148.889 111.975Z" fill="white"/>
</mask>
<g mask="url(#mask0_1_9)">
<path d="M134.422 111.744C136.261 114.104 139.178 119.475 134.173 125.598" stroke="#71C3F5" stroke-width="0.5" stroke-miterlimit="10" stroke-linecap="round"/>
<path d="M129.297 118.491H136.92" stroke="#71C3F5" stroke-width="0.5" stroke-miterlimit="10"/>
<path d="M147.049 111.744C145.21 114.104 142.292 119.475 147.297 125.598" stroke="#71C3F5" stroke-width="0.5" stroke-miterlimit="10" stroke-linecap="round"/>
<path d="M152.174 118.491H144.551" stroke="#71C3F5" stroke-width="0.5" stroke-miterlimit="10"/>
</g>
<path d="M249.303 233.459C249.303 233.459 249.448 214.644 261.083 213.293C272.719 211.942 276.731 215.397 278.322 216.038C279.914 216.68 275.722 217.535 272.171 221.007C268.621 224.479 268.655 228.807 260.656 230.218C252.656 231.629 249.671 237.53 249.671 237.53L249.303 233.459Z" fill="#42DEE1"/>
<path d="M249.671 237.53C249.671 237.53 253.401 218.228 271.435 217.441" stroke="#002AA0" stroke-width="0.5" stroke-miterlimit="10" stroke-linecap="round"/>
<path d="M250.261 226.771C250.261 226.771 252.006 210.548 242.116 208.23C232.226 205.912 228.428 208.495 226.99 208.889C225.553 209.282 229.087 210.437 231.799 213.781C234.511 217.124 234.049 220.845 240.807 222.863C247.557 224.873 249.542 230.252 249.542 230.252L250.27 226.78L250.261 226.771Z" fill="#42DEE1"/>
<path d="M249.534 230.244C249.534 230.244 248.233 213.242 232.774 210.779" stroke="#002AA0" stroke-width="0.5" stroke-miterlimit="10" stroke-linecap="round"/>
<path d="M251.339 189.706C251.339 189.706 251.356 189.766 251.382 189.894C251.407 190.031 251.442 190.211 251.484 190.45C251.527 190.698 251.578 190.997 251.638 191.348C251.681 191.707 251.732 192.126 251.792 192.588C251.998 194.453 252.152 197.172 251.963 200.533C251.801 203.886 251.305 207.854 250.749 212.25C250.184 216.646 249.696 221.495 249.619 226.6C249.388 236.829 250.637 246.057 251.981 252.616C252.631 255.9 253.332 258.526 253.803 260.339C254.051 261.229 254.248 261.93 254.385 262.417C254.445 262.648 254.496 262.828 254.53 262.956C254.564 263.076 254.573 263.144 254.573 263.144C254.573 263.144 253.187 259.219 251.801 252.651C250.415 246.091 249.132 236.846 249.363 226.592C249.44 221.469 249.936 216.603 250.518 212.216C251.091 207.82 251.613 203.86 251.792 200.516C252.006 197.172 251.878 194.461 251.707 192.597C251.655 192.135 251.621 191.716 251.578 191.357C251.527 191.006 251.484 190.707 251.45 190.45C251.416 190.219 251.399 190.031 251.373 189.894C251.356 189.766 251.356 189.706 251.356 189.706H251.339Z" fill="#1B0050"/>
<path d="M262.333 241.413H240.037C239.503 241.413 239.071 241.846 239.071 242.379V245.056C239.071 245.59 239.503 246.023 240.037 246.023H262.333C262.866 246.023 263.299 245.59 263.299 245.056V242.379C263.299 241.846 262.866 241.413 262.333 241.413Z" fill="#1B1B26"/>
<path d="M257.336 265.496H245.846C244.922 265.496 244.127 264.829 243.964 263.914L240.747 245.278H261.605L259.218 263.837C259.099 264.786 258.286 265.496 257.328 265.496H257.336Z" fill="#1B1B26"/>
<path d="M251.065 206.99C251.065 206.99 252.648 194.666 260.382 194.701C268.116 194.735 270.469 197.318 271.461 197.856C272.454 198.395 269.639 198.635 267.038 200.627C264.437 202.62 264.121 205.459 258.765 205.759C253.409 206.058 250.988 209.684 250.988 209.684L251.065 206.982V206.99Z" fill="#42DEE1"/>
<path d="M250.988 209.684C250.988 209.684 254.958 197.326 266.841 198.233" stroke="#002AA0" stroke-width="0.5" stroke-miterlimit="10" stroke-linecap="round"/>
<path d="M252.597 197.677C252.597 197.677 255.471 185.592 248.216 182.898C240.97 180.204 237.856 181.787 236.735 181.949C235.614 182.112 238.172 183.317 239.9 186.105C241.629 188.893 240.927 191.656 245.829 193.828C250.74 195.992 251.715 200.242 251.715 200.242L252.597 197.685V197.677Z" fill="#42DEE1"/>
<path d="M251.715 200.234C251.715 200.234 252.366 187.268 240.919 183.925" stroke="#002AA0" stroke-width="0.5" stroke-miterlimit="10" stroke-linecap="round"/>
<path d="M80.6427 130.371C80.6427 128.788 79.3594 127.505 77.7767 127.505H35.4705C33.8877 127.505 32.6044 128.788 32.6044 130.371V153.222C32.6044 154.804 33.8877 156.087 35.4705 156.087H70.3421L73.6273 160.56C74.6454 161.954 76.4163 161.826 77.2291 160.295L80.0695 154.941C80.4374 154.462 80.6598 153.872 80.6598 153.222V130.371H80.6427Z" fill="#42DEE1"/>
<path d="M72.6092 137.751H40.2273C39.7225 137.751 39.3118 137.341 39.3118 136.836C39.3118 136.331 39.7225 135.921 40.2273 135.921H72.6092C73.114 135.921 73.5247 136.331 73.5247 136.836C73.5247 137.341 73.114 137.751 72.6092 137.751Z" fill="white"/>
<path d="M62.7706 142.036H40.2358C39.731 142.036 39.3204 141.625 39.3204 141.121C39.3204 140.616 39.731 140.206 40.2358 140.206H62.7706C63.2753 140.206 63.686 140.616 63.686 141.121C63.686 141.625 63.2753 142.036 62.7706 142.036Z" fill="white"/>
<path d="M68.2375 146.414H40.2273C39.7225 146.414 39.3118 146.004 39.3118 145.499C39.3118 144.995 39.7225 144.584 40.2273 144.584H68.2375C68.7422 144.584 69.1529 144.995 69.1529 145.499C69.1529 146.004 68.7422 146.414 68.2375 146.414Z" fill="white"/>
<path d="M184.239 211.779C184.316 225.745 173.058 237.137 159.078 237.222C145.107 237.299 133.711 226.044 133.626 212.07C133.549 198.096 144.808 186.713 158.787 186.627C172.758 186.55 184.154 197.805 184.239 211.779Z" fill="#E3AEAE"/>
<path d="M182.326 211.558C183.107 197.466 172.312 185.41 158.215 184.63C144.119 183.849 132.058 194.64 131.277 208.732C130.497 222.823 141.291 234.879 155.388 235.66C169.485 236.44 181.545 225.65 182.326 211.558Z" fill="#F65C78"/>
<path d="M175.821 209.633C175.881 220.357 167.231 229.106 156.503 229.166C145.774 229.226 137.022 220.579 136.962 209.855C136.903 199.13 145.552 190.381 156.28 190.322C167.009 190.262 175.761 198.908 175.821 209.633Z" fill="#39B7E3"/>
<path d="M176.377 210.445C176.437 221.024 167.907 229.653 157.316 229.722C146.724 229.782 138.1 221.255 138.032 210.667C137.972 200.088 146.502 191.459 157.093 191.391C167.676 191.331 176.309 199.857 176.368 210.445H176.377Z" fill="#85DFCA"/>
<path d="M157.957 208.889L157.932 203.988C157.932 203.988 157.949 203.988 157.957 203.988C158.813 204.082 159.694 204.305 160.567 204.655C161.294 205.032 161.79 205.417 161.79 205.417L161.85 205.263L162.594 203.492L162.765 203.082L161.884 202.167L161.465 202.355C160.387 201.825 159.164 201.414 157.906 201.346L157.889 198.652L157.042 197.976V198.652H155.895L155.913 201.397C152.123 201.782 150.335 203.954 150.352 206.434C150.369 209.812 153.269 210.668 155.972 211.309L155.998 216.167C154.15 216.004 152.328 215.311 151.13 214.345L150.052 216.808C151.318 217.894 153.637 218.655 156.015 218.792V220.828L155.083 220.853L156.032 221.495H158.026L158.009 218.767C161.824 218.356 163.63 216.209 163.621 213.729C163.604 210.351 160.661 209.522 157.957 208.88V208.889ZM155.964 208.384C154.552 207.982 153.5 207.452 153.5 206.289C153.5 205.22 154.219 204.339 155.938 204.065L155.964 208.393V208.384ZM158 216.124L157.974 211.822C159.437 212.224 160.507 212.78 160.515 213.969C160.515 215.012 159.771 215.842 158 216.124Z" fill="#39B7E3"/>
<path d="M157.187 218.108L157.204 220.828H155.211L155.194 218.142C152.816 218.014 150.497 217.244 149.231 216.158L150.309 213.695C151.507 214.661 153.329 215.354 155.177 215.517L155.151 210.659C152.448 210.018 149.556 209.162 149.53 205.784C149.513 203.304 151.301 201.132 155.091 200.747L155.074 198.002H157.068L157.085 200.687C158.881 200.773 160.712 201.294 162.03 202.141L161.046 204.604C159.754 203.86 158.394 203.449 157.102 203.313L157.127 208.222C159.831 208.863 162.774 209.693 162.791 213.071C162.808 215.551 160.994 217.698 157.179 218.108H157.187ZM155.134 207.726L155.108 203.398C153.389 203.672 152.662 204.553 152.67 205.622C152.67 206.785 153.722 207.315 155.134 207.717V207.726ZM159.685 213.31C159.685 212.121 158.607 211.566 157.145 211.164L157.17 215.465C158.941 215.192 159.694 214.354 159.685 213.31Z" fill="white"/>
<path d="M176.163 202.218C181.913 202.218 186.575 197.558 186.575 191.81C186.575 186.062 181.913 181.402 176.163 181.402C170.413 181.402 165.751 186.062 165.751 191.81C165.751 197.558 170.413 202.218 176.163 202.218Z" fill="#DEF0FF"/>
<path d="M172.647 191.588L174.041 194.718C174.187 195.034 174.606 195.102 174.837 194.846L180.056 189.176" stroke="#3B6CFF" stroke-width="1.52" stroke-miterlimit="10" stroke-linecap="round"/>
<path d="M176.137 200.405C180.905 200.405 184.77 196.541 184.77 191.776C184.77 187.01 180.905 183.146 176.137 183.146C171.37 183.146 167.505 187.01 167.505 191.776C167.505 196.541 171.37 200.405 176.137 200.405Z" stroke="white" stroke-width="0.5" stroke-miterlimit="10"/>
</g>
<defs>
<linearGradient id="paint0_linear_1_9" x1="120.28" y1="114.848" x2="246.24" y2="114.848" gradientUnits="userSpaceOnUse">
<stop stop-color="#6DECB9"/>
<stop offset="1" stop-color="#48B3B9"/>
</linearGradient>
<clipPath id="clip0_1_9">
<rect width="307" height="279" fill="white"/>
</clipPath>
</defs>
</svg>
