<svg width="372" height="216" viewBox="0 0 372 216" fill="none" xmlns="http://www.w3.org/2000/svg">
<path opacity="0.2" d="M368.822 214.647H6.31583C6.31583 214.647 -13.8221 157.097 17.8199 128.322C49.4619 99.5464 73.9225 149.903 104.135 136.956C134.336 124.01 144.411 -6.90809 258.057 0.285723C371.703 7.47953 299.774 142.721 321.353 154.226C342.932 165.732 381.767 168.614 368.822 214.647Z" fill="url(#paint0_linear_78_143)"/>
<path d="M127.515 116.735L123.831 134.679L125.191 138.037C125.191 138.037 132.186 122.592 133 120.314C133.813 118.048 132.07 115.084 132.07 115.084L127.503 116.723L127.515 116.735Z" fill="#FAB696"/>
<path d="M113.129 87.0183L113.408 94.9907L116.743 97.1756L118.242 89.2729L116.673 85.1123L113.129 87.0183Z" fill="#2D334A"/>
<path d="M110.538 86.1117C116.057 86.1117 120.531 81.6369 120.531 76.1171C120.531 70.5972 116.057 66.1224 110.538 66.1224C105.019 66.1224 100.545 70.5972 100.545 76.1171C100.545 81.6369 105.019 86.1117 110.538 86.1117Z" fill="#F65C78"/>
<path d="M119.741 98.2681C119.741 98.2681 122.402 99.0816 123.355 100.79C124.308 102.498 132.082 115.108 132.082 115.108L127.178 118.374L116.348 104.474L119.753 98.2681H119.741Z" fill="#FAB696"/>
<path d="M134.197 83.4852C133.651 87.5644 122.774 89.4704 109.922 87.7272C97.07 85.9955 87.0998 81.2771 87.6459 77.1863C88.1921 73.1071 99.0686 71.2011 111.921 72.9444C124.773 74.676 134.743 79.3944 134.197 83.4852Z" fill="#F65C78"/>
<g style="mix-blend-mode:screen">
<path d="M111.932 73.6765C124.087 75.3152 133.65 79.6268 134.185 83.5433C134.185 83.5201 134.197 83.5085 134.197 83.4852C134.743 79.406 124.773 74.6876 111.921 72.9444C99.0685 71.2127 88.2036 73.1071 87.6458 77.1863C87.611 77.4071 87.6342 77.6395 87.6575 77.8603C88.2966 73.816 99.115 71.9333 111.909 73.6649L111.932 73.6765Z" fill="#F65C78"/>
</g>
<path d="M106.808 88.8661C106.808 88.8661 107.528 91.7367 106.494 96.4086C106.494 96.4086 107.714 97.8148 110.887 97.8148C114.059 97.8148 115.035 96.3156 115.035 96.3156C115.035 96.3156 113.978 92.3294 114.256 88.1804L106.808 88.8661Z" fill="#FAB696"/>
<g style="mix-blend-mode:multiply" opacity="0.5">
<path d="M106.808 88.8893C106.808 88.8893 106.808 88.9009 106.808 88.9241C106.808 88.9241 106.808 88.9241 106.808 88.9357C106.808 88.9474 106.808 88.9706 106.808 88.9822C106.808 88.9822 106.808 88.9822 106.808 88.9939C106.808 89.0403 106.831 89.1101 106.843 89.1914C106.843 89.1914 106.843 89.203 106.843 89.2147C106.843 89.2495 106.854 89.2844 106.866 89.3193C106.866 89.3193 106.866 89.3425 106.866 89.3541C106.866 89.4006 106.877 89.4471 106.889 89.4936C106.889 89.4936 106.889 89.4936 106.889 89.5052C106.901 89.6214 106.924 89.7493 106.936 89.8887C106.936 89.8887 106.936 89.912 106.936 89.9236C106.936 89.9817 106.947 90.0514 106.959 90.1095C106.959 90.1212 106.959 90.1444 106.959 90.156C106.959 90.2258 106.97 90.2955 106.97 90.3768C106.97 90.3768 106.97 90.3885 106.97 90.4001C106.982 90.5744 106.994 90.7603 106.994 90.9579C106.994 90.9812 106.994 90.9928 106.994 91.016C106.994 91.0974 106.994 91.1787 106.994 91.2717C106.994 91.2949 106.994 91.3182 106.994 91.3414C106.994 91.4344 106.994 91.5274 106.994 91.632C106.994 91.6436 106.994 91.6552 106.994 91.6668C106.994 91.7831 106.994 91.8993 106.994 92.0271C107.842 92.736 108.934 93.1777 110.305 93.1777C112.014 93.1777 113.28 92.5036 114.221 91.4809C114.152 90.4582 114.128 89.3425 114.198 88.2152L106.75 88.9009L106.808 88.8893Z" fill="#FAB696"/>
</g>
<path d="M103.694 78.8597C103.694 78.8597 102.764 91.0741 110.05 91.0741C117.336 91.0741 116.662 78.8597 116.662 78.8597C114.919 75.8846 108.795 77.9649 103.694 78.8597Z" fill="#FAB696"/>
<path d="M113.85 95.6996L111.189 96.362H109.655L106.994 95.6996L100.393 98.6399C99.4289 99.0699 98.6504 99.8369 98.2088 100.802L90.4232 117.758L96.9073 120.744L100.719 113.713L102.02 123.987H118.846L121.961 99.3023L113.861 95.688L113.85 95.6996Z" fill="#FAB696"/>
<path d="M119.265 119.768L110.794 121.302L102.322 119.768C102.322 119.768 98.4412 129.321 97.2676 138.142L110.794 145.905L124.32 138.142C123.146 129.321 119.265 119.768 119.265 119.768Z" fill="#FAB696"/>
<path d="M125.191 138.839C125.191 138.839 123.692 126.241 120.578 121.256L121.449 114.317C121.449 114.317 123.367 112.319 123.855 110.331C124.354 108.332 116.371 96.362 116.371 96.362L114.954 95.9436L118.358 104.334C118.358 104.334 115.953 106.74 110.956 106.74C105.96 106.74 103.31 104.334 103.31 104.334L106.715 95.9436L105.297 96.362C105.297 96.362 97.3141 108.332 97.8137 110.331C98.3134 112.33 100.219 114.317 100.219 114.317L101.091 121.256C97.9764 126.241 96.4774 138.839 96.4774 138.839L110.84 145.882L125.145 138.839H125.191Z" fill="#48B3B9"/>
<path d="M94.3626 117.897L85.0547 102.847L81.4757 105.752C81.4757 105.752 88.7965 124.219 91.6551 124.742C95.0249 125.37 96.8958 120.756 96.8958 120.756L94.3626 117.885V117.897Z" fill="#FAB696"/>
<path d="M125.191 138.839C125.191 138.839 126.69 155.051 121.205 167.521L111.979 171.508L110.887 145.882L125.191 138.839Z" fill="#FAB696"/>
<path d="M111.979 171.508L117.22 203.676L121.205 203.432L123.123 180.677C123.343 178.237 123.216 175.773 122.774 173.367L121.205 167.521L111.979 171.508Z" fill="#FAB696"/>
<path d="M96.5238 138.839C96.5238 138.839 95.5245 147.195 95.2804 149.938C95.0364 152.681 94.5367 168.021 94.5367 168.021L103.508 169.265C103.508 169.265 107.563 161.409 110.898 145.882L96.5354 138.839H96.5238Z" fill="#FAB696"/>
<path d="M103.496 169.265L95.9196 202.793H92.1314C92.1314 202.793 91.6201 187.302 91.1205 182.316C90.6208 177.33 94.5252 168.021 94.5252 168.021L103.496 169.265Z" fill="#F65C78"/>
<path d="M92.7588 201.399L88.041 214.647H96.7678L95.9196 202.793L92.7588 201.399Z" fill="#F65C78"/>
<path d="M120.311 201.178L125.017 214.426H116.29L117.138 202.572L120.311 201.178Z" fill="#F65C78"/>
<path d="M79.384 100.244L81.5803 105.903L84.404 104.09C84.404 104.09 84.7061 102.754 85.415 101.638L85.2058 99.988L81.0457 101.58L79.384 100.244Z" fill="#FAB696"/>
<path d="M86.2748 97.4777L85.2987 103.684L83.2651 103.986L83.974 99.0698L85.5078 97.5241L86.2748 97.4777Z" fill="#FAB696"/>
<path d="M83.0322 90.0978L77.5627 92.1921L81.5514 102.611L87.0209 100.517L83.0322 90.0978Z" fill="#4E556D"/>
<path d="M82.2144 90.4149L77.0706 92.3845L81.0592 102.804L86.2031 100.834L82.2144 90.4149Z" fill="#2D334A"/>
<path d="M79.233 98.0589L81.3247 96.304L83.486 95.5602C83.7301 95.4789 83.9857 95.6067 84.0671 95.8508C84.1484 96.0716 84.0438 96.3156 83.823 96.4202L81.8476 97.3267L80.2208 99.1397L81.8941 98.1402L83.8928 97.8264C84.0787 97.7916 84.253 97.9194 84.2879 98.1054C84.3111 98.2564 84.2297 98.4191 84.0787 98.4773L82.3705 99.2094L80.7901 100.941L80.6391 101.72C80.6391 101.72 79.8373 101.046 79.3725 100.267C79.3725 100.267 78.5591 99.0932 79.2214 98.0821L79.233 98.0589Z" fill="#FAB696"/>
<path d="M85.2871 96.0947L85.2523 96.118C84.892 96.3155 84.7526 96.7572 84.9385 97.1174C85.0779 97.3731 85.3452 97.5358 85.6357 97.5242L86.2748 97.4893L85.2871 96.0947Z" fill="#FAB696"/>
<path d="M78.9773 98.8025L79.384 95.9669L80.7668 94.4212L82.1729 93.9563C82.382 93.8866 82.6028 94.0028 82.6725 94.212C82.7423 94.4096 82.6493 94.6187 82.4634 94.7001L81.3013 95.2579L80.3833 96.3039V97.5009L78.9773 98.8025Z" fill="#FAB696"/>
<path d="M100.51 80.3124C103.531 79.9638 107.424 80.0335 111.619 80.603C115.616 81.1492 119.23 82.0441 122.007 83.1133L121.089 77.2211L116.546 75.0943C116.546 75.0943 110.143 72.3981 102.834 74.6411C95.5245 76.8841 100.521 80.3124 100.521 80.3124H100.51Z" fill="#F65C78"/>
<path d="M103.682 80.0801C103.682 80.0801 98.8014 81.0679 98.8014 86.1931C98.8014 91.3182 102.485 92.7826 102.485 92.7826C102.485 92.7826 99.7543 94.9674 99.7543 99.6393C99.7543 104.311 104.158 104.73 104.158 104.73L106.738 95.9436C106.738 95.9436 107.319 91.9226 106.982 90.1444C106.982 90.1444 103.717 87.7039 103.67 80.0801H103.682Z" fill="#2D334A"/>
<path d="M103.682 80.0801C103.682 80.0801 105.297 87.0182 113.245 88.378C113.245 88.378 115.058 89.238 115.058 92.1085C115.058 94.9791 113.292 96.9199 113.292 100.918C113.292 104.916 116.383 105.694 118.242 105.694C118.265 105.694 118.277 105.694 118.3 105.694C120.462 105.659 122.147 103.777 122.147 101.603V97.2453C122.147 96.7572 122.065 96.2807 121.891 95.8274L116.604 81.5212C116.604 81.5212 110.236 79.8709 103.67 80.0801H103.682Z" fill="#2D334A"/>
<path d="M97.4535 133.435C97.4535 133.435 109.515 136.294 124.308 133.435C124.308 133.435 125.4 136.643 125.598 140.187C125.807 143.732 125.458 159.27 121.507 167.452C121.507 167.452 122.797 171.206 123.343 175.227C123.89 179.248 121.577 202.828 121.577 202.828H116.604C116.604 202.828 111.828 173.867 111.561 171.682C111.293 169.497 110.608 148.439 110.608 148.439C110.608 148.439 107.819 161.118 103.856 169.637L96.3612 202.142H91.7247C91.7247 202.142 90.7718 183.199 90.6324 181.491C90.493 179.782 91.3877 173.042 94.1069 168.265C94.1069 168.265 92.6078 151.158 97.4419 133.435H97.4535Z" fill="#2D334A"/>
<path d="M124.877 133.075C124.877 133.075 123.762 132.761 122.925 132.459C122.03 132.145 118.928 131.82 118.928 131.82L115.837 132.366C115.837 132.366 115.813 133.121 116.673 133.075C117.533 133.028 119.009 132.866 119.009 132.866L120.845 133.296L118.916 133.133L116.371 133.563C116.371 133.563 116.755 134.318 117.417 134.225C118.079 134.132 119.032 134.063 119.032 134.063L120.822 134.295L118.87 134.411L117.01 134.795C117.01 134.795 117.243 135.411 117.801 135.411C118.358 135.411 119.276 135.271 119.276 135.271L121.066 135.457C121.066 135.457 123.065 137.619 125.377 137.026L124.854 133.075H124.877Z" fill="#FAB696"/>
<path d="M123.308 136.898C123.738 139.037 124.25 140.792 124.401 141.268L125.447 140.954C125.098 139.815 124.761 138.491 124.47 137.131C124.064 137.119 123.669 137.038 123.308 136.91V136.898Z" fill="#F65C78"/>
<path d="M124.633 126.497C124.633 126.497 124.61 126.497 124.598 126.509C122.914 127.194 122.53 129.658 122.693 132.378C122.786 132.401 122.867 132.424 122.937 132.447C123.216 132.54 123.518 132.645 123.808 132.738C123.599 130.135 123.855 127.996 125.017 127.52C125.017 127.52 125.028 127.52 125.04 127.52C127.445 126.578 131.931 132.459 134.197 136.375L135.138 135.829C134.487 134.714 128.712 124.917 124.645 126.497H124.633Z" fill="#F65C78"/>
<path d="M135.296 134.284L123.315 139.743C121.668 140.493 120.941 142.436 121.691 144.084L128.127 158.213C128.877 159.86 130.82 160.587 132.467 159.837L144.449 154.379C146.096 153.628 146.822 151.685 146.072 150.038L139.637 135.908C138.887 134.261 136.943 133.534 135.296 134.284Z" fill="#E3AEAE"/>
<path d="M136.56 137.129L124.557 142.597C122.916 143.344 122.192 145.281 122.939 146.922L129.385 161.073C130.132 162.715 132.069 163.439 133.71 162.691L145.712 157.223C147.353 156.476 148.078 154.539 147.33 152.898L140.885 138.747C140.137 137.106 138.201 136.381 136.56 137.129Z" fill="#F65C78"/>
<path d="M135.512 142.988L129.706 145.633C128.912 145.995 128.561 146.932 128.923 147.726L131.043 152.38C131.405 153.174 132.342 153.525 133.136 153.163L138.942 150.518C139.736 150.156 140.087 149.219 139.725 148.425L137.605 143.771C137.243 142.977 136.306 142.626 135.512 142.988Z" fill="#E3AEAE"/>
<g style="mix-blend-mode:multiply" opacity="0.3">
<path d="M140.309 149.822L138.194 145.173C138.194 145.173 138.148 145.08 138.113 145.034L139.693 148.508C140.053 149.299 139.693 150.24 138.915 150.6L133.116 153.238C132.372 153.575 131.501 153.285 131.094 152.588L131.629 153.761C131.989 154.552 132.93 154.9 133.72 154.54L139.519 151.902C140.309 151.542 140.658 150.6 140.297 149.81L140.309 149.822Z" fill="#F65C78"/>
</g>
<path opacity="0.7" d="M70.8547 61.2878L68.519 55.047C69.5183 53.8035 69.9483 52.5832 69.4835 52.1183C69.1349 51.7697 68.3912 51.9091 67.5313 52.4089L66.9154 50.7586C67.7172 49.6429 68.0193 48.6086 67.601 48.1902C67.2989 47.8881 66.7062 47.9578 65.9974 48.2948L64.6727 44.7502C65.3815 44.0529 66.009 43.3788 66.5552 42.6932C69.6926 38.7302 69.5183 37.0683 68.6352 36.185C67.7521 35.3018 65.9277 35.325 62.0581 38.3699C61.3842 38.9045 60.745 39.4972 60.0827 40.148L56.5269 38.8232C56.8639 38.1142 56.9336 37.5099 56.6315 37.2194C56.2131 36.801 55.1789 37.1031 54.0634 37.905L52.4133 37.2891C52.9014 36.4291 53.0408 35.6853 52.7038 35.3367C52.239 34.8718 51.0189 35.3018 49.7755 36.3012L43.5354 33.9653C43.3379 33.8956 43.1055 33.9537 42.9544 34.1164L40.4793 36.7313C40.2353 36.9869 40.2818 37.4053 40.5839 37.5564L55.0279 45.3661C51.17 49.4454 47.0331 54.4892 44.3721 58.1848L38.8873 56.4648C38.806 56.43 38.7014 56.4648 38.6317 56.5229L36.9351 58.4405C36.8305 58.5567 36.8538 58.7311 36.9816 58.8008L42.2456 61.3808C41.6646 62.3803 41.4205 63.0427 41.6065 63.2286C41.804 63.4262 42.5012 63.1473 43.5587 62.5313L46.2894 68.1097C46.3592 68.2376 46.5451 68.2608 46.6497 68.1562L48.567 66.4595C48.6367 66.3897 48.66 66.2968 48.6251 66.2038L46.8007 60.3697C50.4844 57.7084 55.4462 53.6292 59.4784 49.8172L67.2873 64.263C67.4499 64.5651 67.8566 64.6116 68.1123 64.3676L70.7269 61.8922C70.8895 61.7411 70.9476 61.5086 70.8779 61.3111L70.8547 61.2878Z" fill="url(#paint1_linear_78_143)"/>
<path style="mix-blend-mode:multiply" d="M40.9208 67.6217C40.9208 67.6217 39.108 169.404 158.32 175.215V204.292C158.32 204.292 32.2056 187.941 40.9208 67.6217Z" fill="url(#paint2_linear_78_143)"/>
<path d="M150.826 189.73C146.665 189.73 143.272 186.337 143.272 182.176C143.272 178.016 146.665 174.622 150.826 174.622C154.986 174.622 158.379 178.016 158.379 182.176C158.379 186.337 154.986 189.73 150.826 189.73ZM150.826 176.052C147.444 176.052 144.702 178.794 144.702 182.176C144.702 185.558 147.444 188.301 150.826 188.301C154.207 188.301 156.949 185.558 156.949 182.176C156.949 178.794 154.207 176.052 150.826 176.052Z" fill="#545C77"/>
<path d="M169.697 180.317H127.097C125.12 180.317 123.518 181.919 123.518 183.896V211.068C123.518 213.045 125.12 214.647 127.097 214.647H169.697C171.673 214.647 173.276 213.045 173.276 211.068V183.896C173.276 181.919 171.673 180.317 169.697 180.317Z" fill="#545C77"/>
<path d="M169.697 180.317H133.476C131.5 180.317 129.897 181.919 129.897 183.896V211.068C129.897 213.045 131.5 214.647 133.476 214.647H169.697C171.673 214.647 173.276 213.045 173.276 211.068V183.896C173.276 181.919 171.673 180.317 169.697 180.317Z" fill="#2D334A"/>
<path d="M142.029 180.317H135.498V214.647H142.029V180.317Z" fill="white"/>
<path d="M168.128 180.317H161.597V214.647H168.128V180.317Z" fill="white"/>
<path d="M151.581 189.73C147.421 189.73 144.027 186.337 144.027 182.176C144.027 178.016 147.421 174.622 151.581 174.622C155.741 174.622 159.134 178.016 159.134 182.176C159.134 186.337 155.741 189.73 151.581 189.73ZM151.581 176.052C148.199 176.052 145.457 178.794 145.457 182.176C145.457 185.558 148.199 188.301 151.581 188.301C154.962 188.301 157.705 185.558 157.705 182.176C157.705 178.794 154.962 176.052 151.581 176.052Z" fill="#2D334A"/>
<path d="M263.821 114.596L266.273 120.733L258.51 123.185L256.326 117.734L263.821 114.596Z" fill="#FAB696"/>
<path d="M259.603 121.139C259.603 121.139 258.371 122.801 257.557 126.683C256.744 130.565 254.013 136.201 254.013 136.201L257.22 140.083C257.22 140.083 266.761 125.428 266.9 123.859C267.04 122.29 266.284 120.721 266.284 120.721L259.603 121.128V121.139Z" fill="#FAB696"/>
<path d="M223.278 131.727L219.827 171.717L232.725 173.356L239.267 135.55L223.278 131.727Z" fill="#2D334A"/>
<path d="M231.819 170.985C231.819 170.985 232.725 171.891 233.085 177.714C233.445 183.525 224.905 214.973 224.905 214.973L216.724 213.52C216.724 213.52 218.176 179.352 219.083 175.715C219.989 172.077 220.349 167.905 220.349 167.905L231.795 170.996L231.819 170.985Z" fill="#2D334A"/>
<path d="M251.991 131.727L255.443 171.717L242.544 173.356L236.002 135.55L251.991 131.727Z" fill="#2D334A"/>
<path d="M243.451 170.985C243.451 170.985 242.544 171.891 242.184 177.714C241.824 183.525 250.365 214.973 250.365 214.973L258.545 213.52C258.545 213.52 257.093 179.352 256.186 175.715C255.28 172.077 254.92 167.905 254.92 167.905L243.474 170.996L243.451 170.985Z" fill="#2D334A"/>
<path d="M212.378 114.596L209.926 120.733L217.688 123.185L219.873 117.734L212.378 114.596Z" fill="#FAB696"/>
<path d="M216.596 121.139C216.596 121.139 217.828 122.801 218.641 126.683C219.455 130.565 222.185 136.201 222.185 136.201L218.978 140.083C218.978 140.083 209.438 125.428 209.299 123.859C209.159 122.29 209.914 120.721 209.914 120.721L216.596 121.128V121.139Z" fill="#FAB696"/>
<path d="M233.701 92.3642L219.734 95.7345C219.734 95.7345 221.465 109.913 222.371 116.096C223.278 122.278 222.185 134.992 222.185 134.992C222.185 134.992 224.184 137.724 237.629 137.724C251.073 137.724 253.258 135.539 253.258 135.539C253.258 135.539 252.712 120.094 253.072 117.002C253.432 113.911 256.221 95.8158 256.221 95.8158L242.23 92.2712L233.689 92.3642H233.701Z" fill="#48B3B9"/>
<path d="M219.734 95.7461C219.734 95.7461 217.003 99.744 215.237 103.695C213.47 107.647 210.6 115.828 210.6 115.828C210.6 115.828 216.189 118.281 220.28 118.827L225.184 109.285L219.734 95.7461Z" fill="#48B3B9"/>
<path d="M256.279 95.7461C256.279 95.7461 259.01 99.744 260.776 103.695C262.542 107.647 265.413 115.828 265.413 115.828C265.413 115.828 259.823 118.281 255.733 118.827L250.829 109.285L256.279 95.7461Z" fill="#48B3B9"/>
<path d="M232.272 82.7532C232.272 82.7532 233.132 88.0294 231.226 93.6078C231.226 93.6078 232.632 95.3394 237.536 95.3394C242.44 95.3394 243.578 93.7008 243.578 93.7008C243.578 93.7008 242.126 88.9243 242.079 82.7067L232.272 82.7532Z" fill="#FAB696"/>
<g style="mix-blend-mode:multiply" opacity="0.5">
<path d="M242.091 82.7067L232.283 82.7532C232.283 82.7532 232.469 83.9153 232.481 85.7051C233.364 87.9829 234.956 89.8656 237.815 89.8656C239.953 89.8656 241.405 88.808 242.393 87.3205C242.23 85.9259 242.126 84.3802 242.114 82.7183L242.091 82.7067Z" fill="#FAB696"/>
</g>
<path d="M230.889 74.8154C230.889 74.8154 229.959 87.0298 237.245 87.0298C244.531 87.0298 243.857 74.8154 243.857 74.8154C241.789 71.1197 234.363 70.3527 230.889 74.8154Z" fill="#FAB696"/>
<path d="M231.354 78.0696C231.354 78.0696 230.575 76.4659 229.715 77.6629C228.867 78.8599 229.471 81.7537 231.656 81.6143L231.354 78.0696Z" fill="#FAB696"/>
<path d="M243.392 78.0696C243.392 78.0696 244.171 76.4659 245.031 77.6629C245.879 78.8599 245.275 81.7537 243.09 81.6143L243.392 78.0696Z" fill="#FAB696"/>
<path d="M237.315 67.5054C231.331 67.5054 229.495 72.1075 229.495 72.1075L229.89 77.407C230.389 76.977 230.784 77.4303 230.784 77.4303L230.947 80.08L231.551 79.9406C231.551 79.9406 231.389 78.7087 231.389 77.8254C231.389 76.9422 231.517 76.0589 231.517 76.0589L231.993 75.687L231.958 73.9205C231.958 73.9205 232.76 73.7462 234.515 74.0251C236.269 74.304 237.292 74.0251 237.292 74.0251C237.292 74.0251 238.314 74.2924 240.069 74.0251C241.824 73.7578 242.626 73.9205 242.626 73.9205L242.591 75.687L243.067 76.0589C243.067 76.0589 243.195 76.9422 243.195 77.8254C243.195 78.7087 243.032 79.9406 243.032 79.9406L243.636 80.08L243.799 77.4303C243.799 77.4303 244.206 76.977 244.694 77.407L245.089 72.1075C245.089 72.1075 243.253 67.5054 237.269 67.5054H237.315Z" fill="#2D334A"/>
<path d="M221.883 136.19C221.883 136.19 223.185 136.643 224.207 136.933C225.288 137.235 228.542 139.06 228.542 139.06L231.18 141.721C231.18 141.721 230.692 142.465 229.878 141.826C229.065 141.187 227.74 140.013 227.74 140.013L225.648 139.165L227.647 140.338L229.832 142.512C229.832 142.512 228.937 142.977 228.356 142.43C227.775 141.884 226.892 141.164 226.892 141.164L224.986 140.152L226.81 141.605L228.367 143.267C228.367 143.267 227.728 143.709 227.171 143.314C226.613 142.918 225.823 142.163 225.823 142.163L223.952 141.105C223.952 141.105 220.512 141.838 218.665 139.664L221.895 136.166L221.883 136.19Z" fill="#FAB696"/>
<path d="M254.304 136.19C254.304 136.19 253.002 136.643 251.98 136.933C250.899 137.235 247.645 139.06 247.645 139.06L245.008 141.721C245.008 141.721 245.496 142.465 246.309 141.826C247.123 141.187 248.447 140.013 248.447 140.013L250.539 139.165L248.54 140.338L246.356 142.512C246.356 142.512 247.25 142.977 247.831 142.43C248.412 141.884 249.296 141.164 249.296 141.164L251.201 140.152L249.377 141.605L247.82 143.267C247.82 143.267 248.459 143.709 249.017 143.314C249.574 142.918 250.365 142.163 250.365 142.163L252.235 141.105C252.235 141.105 255.675 141.838 257.523 139.664L254.292 136.166L254.304 136.19Z" fill="#FAB696"/>
<path d="M244.833 112.051H231.028C230.399 112.051 229.89 112.561 229.89 113.19V119.908C229.89 120.537 230.399 121.046 231.028 121.046H244.833C245.462 121.046 245.972 120.537 245.972 119.908V113.19C245.972 112.561 245.462 112.051 244.833 112.051Z" fill="#2D334A"/>
<path d="M241.545 116.549C241.545 114.55 239.93 112.935 237.931 112.935C235.932 112.935 234.317 114.55 234.317 116.549C234.317 118.548 235.932 120.163 237.931 120.163C239.93 120.163 241.545 118.548 241.545 116.549Z" fill="white"/>
<path d="M240.929 116.549C240.929 114.887 239.581 113.55 237.931 113.55C236.281 113.55 234.933 114.899 234.933 116.549C234.933 118.199 236.281 119.547 237.931 119.547C239.581 119.547 240.929 118.199 240.929 116.549Z" fill="#2D334A"/>
<path d="M240.29 116.549C240.29 115.247 239.232 114.19 237.931 114.19C236.629 114.19 235.572 115.247 235.572 116.549C235.572 117.851 236.629 118.908 237.931 118.908C239.232 118.908 240.29 117.851 240.29 116.549Z" fill="white"/>
<path d="M239.976 116.549C239.976 115.422 239.058 114.503 237.931 114.503C236.804 114.503 235.886 115.422 235.886 116.549C235.886 117.676 236.804 118.594 237.931 118.594C239.058 118.594 239.976 117.676 239.976 116.549Z" fill="#2D334A"/>
<g style="mix-blend-mode:screen">
<path d="M237.78 115.724C237.78 115.363 237.489 115.061 237.117 115.061C236.746 115.061 236.455 115.352 236.455 115.724C236.455 116.096 236.746 116.386 237.117 116.386C237.489 116.386 237.78 116.096 237.78 115.724Z" fill="#2D334A"/>
</g>
<g style="mix-blend-mode:screen">
<path d="M237.176 115.514C237.176 115.375 237.059 115.259 236.92 115.259C236.781 115.259 236.664 115.375 236.664 115.514C236.664 115.654 236.781 115.77 236.92 115.77C237.059 115.77 237.176 115.654 237.176 115.514Z" fill="#2D334A"/>
</g>
<path d="M233.48 111.47H231.551V112.609H233.48V111.47Z" fill="#2D334A"/>
<path d="M244.206 111.586H242.684V112.481H244.206V111.586Z" fill="#2D334A"/>
<path d="M240.429 110.645H235.421L234.352 112.377H241.51L240.429 110.645Z" fill="#2D334A"/>
<path d="M231.551 92.7477C231.551 92.7477 229.32 96.025 227.508 103.835C225.695 111.645 230.506 115.968 230.506 115.968V117.281C230.506 117.281 227.693 116.375 225.776 111.47C223.859 106.566 227.182 93.8866 227.182 93.8866L231.54 92.7477H231.551Z" fill="#2D334A"/>
<path d="M243.311 92.4688C243.311 92.4688 245.542 95.7461 247.355 103.556C249.168 111.366 244.357 115.689 244.357 115.689V117.002C244.357 117.002 247.169 116.096 249.086 111.191C251.004 106.287 247.68 93.6077 247.68 93.6077L243.323 92.4688H243.311Z" fill="#2D334A"/>
<path d="M203.942 158.178H201.757V137.642C201.757 134.33 204.453 131.646 207.753 131.646H209.566C212.878 131.646 215.562 134.342 215.562 137.642V157.457H213.377V137.642C213.377 135.539 211.669 133.83 209.566 133.83H207.753C205.65 133.83 203.942 135.539 203.942 137.642V158.178Z" fill="#E3AEAE"/>
<path d="M230.169 156.446H197.283C194.998 156.446 193.146 158.298 193.146 160.583V210.649C193.146 212.934 194.998 214.787 197.283 214.787H230.169C232.453 214.787 234.305 212.934 234.305 210.649V160.583C234.305 158.298 232.453 156.446 230.169 156.446Z" fill="#E3AEAE"/>
<path d="M222.72 156.446H189.834C187.55 156.446 185.698 158.298 185.698 160.583V210.649C185.698 212.934 187.55 214.787 189.834 214.787H222.72C225.005 214.787 226.857 212.934 226.857 210.649V160.583C226.857 158.298 225.005 156.446 222.72 156.446Z" fill="white"/>
<path d="M203.326 158.178H201.141V137.642C201.141 134.33 203.837 131.646 207.137 131.646H208.95C212.262 131.646 214.946 134.342 214.946 137.642V157.457H212.762V137.642C212.762 135.539 211.053 133.83 208.95 133.83H207.137C205.034 133.83 203.326 135.539 203.326 137.642V158.178Z" fill="white"/>
<path d="M268.608 189.614H266.424V169.079C266.424 165.767 269.12 163.082 272.42 163.082H274.233C277.544 163.082 280.229 165.778 280.229 169.079V188.894H278.044V169.079C278.044 166.975 276.336 165.267 274.233 165.267H272.42C270.317 165.267 268.608 166.975 268.608 169.079V189.614Z" fill="white"/>
<path d="M291.291 173.356H244.938C242.531 173.356 240.58 175.307 240.58 177.714V210.708C240.58 213.115 242.531 215.066 244.938 215.066H291.291C293.698 215.066 295.649 213.115 295.649 210.708V177.714C295.649 175.307 293.698 173.356 291.291 173.356Z" fill="white"/>
<path d="M253.572 173.356H297.787C300.146 173.356 302.052 175.273 302.052 177.621V210.789C302.052 213.148 300.134 215.054 297.787 215.054H253.583C251.225 215.054 249.319 213.137 249.319 210.789V177.621C249.319 175.262 251.236 173.356 253.583 173.356H253.572Z" fill="#E3AEAE"/>
<path d="M269.561 189.614H267.377V169.079C267.377 165.767 270.073 163.082 273.373 163.082H275.186C278.497 163.082 281.182 165.778 281.182 169.079V188.894H278.997V169.079C278.997 166.975 277.289 165.267 275.186 165.267H273.373C271.269 165.267 269.561 166.975 269.561 169.079V189.614Z" fill="#E3AEAE"/>
<defs>
<linearGradient id="paint0_linear_78_143" x1="-0.00558959" y1="107.321" x2="371.401" y2="107.321" gradientUnits="userSpaceOnUse">
<stop stop-color="#6DECB9"/>
<stop offset="1" stop-color="#48B3B9"/>
</linearGradient>
<linearGradient id="paint1_linear_78_143" x1="36.8538" y1="51.0724" x2="70.8895" y2="51.0724" gradientUnits="userSpaceOnUse">
<stop stop-color="#6DECB9"/>
<stop offset="1" stop-color="#48B3B9"/>
</linearGradient>
<linearGradient id="paint2_linear_78_143" x1="40.4908" y1="135.957" x2="158.32" y2="135.957" gradientUnits="userSpaceOnUse">
<stop stop-color="#48B3B9"/>
<stop offset="1" stop-color="white"/>
</linearGradient>
</defs>
</svg>
