<svg width="42" height="41" viewBox="0 0 42 41" fill="none" xmlns="http://www.w3.org/2000/svg">
<g clip-path="url(#clip0_1_325)">
<path d="M25.7377 0H15.7757C12.5102 0 9.85668 2.64049 9.85668 5.88994V8.95471C4.33895 9.44388 0 14.066 0 19.6864V30.2234C0 36.1683 4.86062 41 10.8298 41H31.1652C33.0663 41 34.852 40.5108 36.402 39.6523C36.4271 39.6373 36.4522 39.6273 36.4772 39.6124C39.7678 37.7605 41.995 34.2465 41.995 30.2234V19.6864C41.995 13.9063 37.4002 9.17933 31.6567 8.91977V5.88994C31.6567 2.64049 29.0032 0 25.7377 0ZM39.5923 30.2234C39.5923 32.5944 38.594 34.7307 36.9989 36.2581V13.6517C38.594 15.1791 39.5923 17.3154 39.5923 19.6864V30.2234ZM2.40774 19.6864C2.40774 17.2505 3.46112 15.0643 5.13149 13.5319V36.3779C3.46112 34.8455 2.40774 32.6592 2.40774 30.2234V19.6864ZM25.7377 2.39591C27.6739 2.39591 29.249 3.96323 29.249 5.88994V8.90979H26.6707V7.21768C26.6707 5.30095 25.1057 3.73862 23.1795 3.73862H18.3389C16.4128 3.73862 14.8427 5.29596 14.8427 7.21768V8.90979H12.2644V5.88994C12.2644 3.96323 13.8395 2.39591 15.7757 2.39591H25.7377ZM34.6112 12.0444C34.6012 12.0993 34.5962 12.1542 34.5962 12.2141V37.8753C33.6582 38.2946 32.6299 38.5392 31.5464 38.5891V11.3207C32.6349 11.3706 33.6682 11.6202 34.6112 12.0394V12.0444ZM12.9918 38.6041V11.3007H29.1387V38.6041H12.9918ZM7.53923 37.9402V12.2092C7.53923 12.1293 7.5292 12.0544 7.51415 11.9795C8.4622 11.5752 9.50054 11.3456 10.584 11.3107V38.5891C9.50555 38.5592 8.47725 38.3346 7.53422 37.9352L7.53923 37.9402ZM24.268 8.90979H17.2555V7.21768C17.2555 6.62369 17.742 6.13453 18.344 6.13453H23.1845C23.7814 6.13453 24.273 6.6187 24.273 7.21768V8.90979H24.268Z" fill="white"/>
</g>
<defs>
<clipPath id="clip0_1_325">
<rect width="42" height="41" fill="white"/>
</clipPath>
</defs>
</svg>
