<svg width="95" height="70" viewBox="0 0 95 70" fill="none" xmlns="http://www.w3.org/2000/svg">
<path d="M48 4.875C58.5398 4.875 67.125 13.1244 67.125 23.2715C67.125 24.7344 66.9401 26.1973 66.583 27.624L66.5596 27.7188C66.0525 30.6408 65.3606 33.0121 64.4951 34.7588C62.644 38.5057 54.9127 50.7596 51.2617 56.498C53.6156 56.8099 55.359 57.4551 56.5244 58.2646C57.7216 59.0963 58.3193 60.1099 58.3193 61.1133C58.3192 62.3094 57.4763 63.5186 55.7812 64.4219C54.084 65.3262 51.5134 65.9365 48 65.9365C44.4866 65.9365 41.916 65.3262 40.2188 64.4219C38.5237 63.5186 37.6808 62.3094 37.6807 61.1133C37.6807 60.107 38.279 59.0937 39.4756 58.2627C40.6402 57.454 42.3811 56.8099 44.7314 56.498C41.0805 50.7538 33.3501 38.4998 31.499 34.7588C30.6242 32.9875 29.9255 30.5898 29.417 27.624L29.291 27.0869C29.0165 25.8312 28.875 24.5515 28.875 23.2715C28.875 13.1244 37.4602 4.875 48 4.875ZM49.3535 59.4795V59.4805C49.0664 59.9363 48.548 60.209 48 60.209C47.4512 60.209 46.9402 59.9355 46.6475 59.4814V59.4805C46.6328 59.4609 46.6145 59.4315 46.5918 59.3965C44.7447 59.5175 43.3333 59.8565 42.3682 60.2217C41.8791 60.4068 41.5063 60.5969 41.251 60.7676C41.1233 60.853 41.0275 60.9323 40.9609 61.001C40.9157 61.0476 40.889 61.0864 40.873 61.1152C40.8918 61.1462 40.925 61.1917 40.9854 61.2471C41.069 61.3238 41.1896 61.4123 41.3486 61.5078C41.6671 61.6991 42.1307 61.9127 42.7354 62.1123C43.9439 62.5113 45.7099 62.8525 48 62.8525C50.2904 62.8525 52.0426 62.5185 53.2432 62.1211C53.8438 61.9223 54.305 61.7086 54.625 61.5137C54.785 61.4162 54.908 61.3248 54.9951 61.2441C55.0552 61.1885 55.0907 61.1392 55.1143 61.1025C55.0947 61.0706 55.0641 61.0285 55.0137 60.9795C54.9422 60.91 54.8417 60.831 54.7109 60.7461C54.4497 60.5764 54.0753 60.3873 53.5869 60.2051C52.6236 59.8457 51.2261 59.5147 49.4043 59.3965C49.3834 59.4301 49.3673 59.4574 49.3535 59.4795ZM48 7.94727C39.2034 7.94727 32.0605 14.824 32.0605 23.2715C32.0606 24.5019 32.2124 25.7377 32.5215 26.9385H32.5205C32.5289 26.9662 32.5421 27.0121 32.5459 27.0605H32.5479C33.0056 29.7425 33.6388 31.9465 34.3711 33.4307L34.5674 33.8145C36.7646 38.0214 44.7728 50.6855 48 55.751C51.3326 50.5202 59.7691 37.1874 61.6289 33.4307C62.3612 31.9465 62.9944 29.7425 63.4521 27.0605C63.4578 27.0226 63.4649 26.9819 63.4785 26.9395C63.7818 25.7379 63.9394 24.5016 63.9395 23.2715C63.9395 14.824 56.7966 7.94727 48 7.94727Z" fill="white" stroke="white" stroke-width="0.25"/>
<path d="M47.552 12.8139C53.2361 12.814 57.8702 17.2639 57.8704 22.7416C57.8704 28.2194 53.2362 32.6702 47.552 32.6703C41.8677 32.6703 37.2327 28.2195 37.2327 22.7416C37.2328 17.2638 41.8678 12.8139 47.552 12.8139ZM47.552 15.8803C43.611 15.8803 40.4115 18.9635 40.4114 22.7416C40.4114 26.5139 43.6108 29.5971 47.552 29.5971C51.4931 29.5969 54.6917 26.5196 54.6917 22.7416C54.6915 18.9636 51.4929 15.8804 47.552 15.8803Z" fill="white" stroke="white" stroke-width="0.25"/>
</svg>
