<svg width="147" height="104" viewBox="0 0 147 104" fill="none" xmlns="http://www.w3.org/2000/svg">
<g clip-path="url(#clip0_1_70)">
<path d="M142.574 52.9759L145.136 68.2826L130.192 66.0064C124.119 69.8905 116.798 72.1577 108.919 72.1577C107.467 72.1577 106.035 72.0808 104.624 71.9302C106.538 66.573 107.575 60.8347 107.575 54.8661C107.575 36.2529 97.4852 19.874 82.2046 10.3694C89.0788 3.95584 98.5117 0 108.919 0C129.95 0 147 16.1525 147 36.0783C147 42.1826 145.398 47.9339 142.574 52.9749V52.9759Z" fill="#1FD1CC"/>
<path d="M5.9774 77.6854L2.51578 98.3583L22.6982 95.2852C30.9013 100.53 40.7877 103.592 51.429 103.592C79.8319 103.592 102.858 81.7769 102.858 54.866C102.858 27.9561 79.8319 6.14015 51.429 6.14015C23.0261 6.14015 0 27.9551 0 54.865C0 63.1098 2.16134 70.8769 5.9774 77.6844V77.6854Z" fill="#7F6CFF"/>
<path d="M53.7987 69.2341H49.287C48.236 69.2341 47.425 68.3274 47.569 67.3101C48.3412 61.8291 52.3156 57.9232 55.8661 54.4361C59.6586 50.7097 62.9343 47.492 62.9343 42.813C62.9343 36.5959 57.7547 31.5389 51.3891 31.5389C45.5374 31.5389 40.6897 35.812 39.943 41.3298C39.8286 42.1766 39.0972 42.814 38.2229 42.814H33.7562C32.7348 42.814 31.9309 41.9562 32.029 40.9637C32.985 31.3554 41.3025 23.8198 51.3881 23.8198C62.1131 23.8198 70.8392 32.3409 70.8392 42.814C70.8392 46.3988 69.7769 49.7212 67.591 52.9729C65.8209 55.6071 63.6095 57.7785 61.4727 59.8791C58.629 62.673 56.1194 65.1386 55.4912 67.9075C55.3155 68.6825 54.6128 69.2351 53.7987 69.2351V69.2341Z" fill="white"/>
<path d="M51.3871 85.9123C54.2754 85.9123 56.6168 83.6258 56.6168 80.8054C56.6168 77.9849 54.2754 75.6985 51.3871 75.6985C48.4988 75.6985 46.1574 77.9849 46.1574 80.8054C46.1574 83.6258 48.4988 85.9123 51.3871 85.9123Z" fill="white"/>
</g>
<defs>
<clipPath id="clip0_1_70">
<rect width="146.637" height="103.335" fill="white" transform="scale(1.00247)"/>
</clipPath>
</defs>
</svg>
