<svg width="262" height="240" viewBox="0 0 262 240" fill="none" xmlns="http://www.w3.org/2000/svg">
<g clip-path="url(#clip0_1_76)">
<path d="M240.287 0H74.1343C67.2791 0 61.7218 5.55456 61.7218 12.4065V149.984C61.7218 156.836 67.2791 162.391 74.1343 162.391H240.287C247.142 162.391 252.7 156.836 252.7 149.984V12.4065C252.7 5.55456 247.142 0 240.287 0Z" fill="#ECEEED"/>
<path d="M94.6373 55.6909H82.2461V68.076H94.6373V55.6909Z" fill="#1DA7D5"/>
<path d="M117.546 55.6909H105.155V68.076H117.546V55.6909Z" fill="#1DA7D5"/>
<path d="M140.476 55.6909H128.085V68.076H140.476V55.6909Z" fill="#1DA7D5"/>
<path d="M163.406 55.6909H151.015V68.076H163.406V55.6909Z" fill="#1DA7D5"/>
<path d="M186.336 55.6909H173.945V68.076H186.336V55.6909Z" fill="#1DA7D5"/>
<path d="M209.266 55.6909H196.875V68.076H209.266V55.6909Z" fill="#1DA7D5"/>
<path d="M232.196 55.6909H219.805V68.076H232.196V55.6909Z" fill="#137D99"/>
<path d="M94.6373 77.9501H82.2461V90.3353H94.6373V77.9501Z" fill="#1DA7D5"/>
<path d="M117.546 77.9501H105.155V90.3353H117.546V77.9501Z" fill="#1DA7D5"/>
<path d="M140.476 77.9501H128.085V90.3353H140.476V77.9501Z" fill="#FFC300"/>
<path d="M163.406 77.9501H151.015V90.3353H163.406V77.9501Z" fill="#1DA7D5"/>
<path d="M186.336 77.9501H173.945V90.3353H186.336V77.9501Z" fill="#1DA7D5"/>
<path d="M209.266 77.9501H196.875V90.3353H209.266V77.9501Z" fill="#1DA7D5"/>
<path d="M232.196 77.9501H219.805V90.3353H232.196V77.9501Z" fill="#137D99"/>
<path d="M94.6373 100.188H82.2461V112.573H94.6373V100.188Z" fill="#1DA7D5"/>
<path d="M117.546 100.188H105.155V112.573H117.546V100.188Z" fill="#1DA7D5"/>
<path d="M140.476 100.188H128.085V112.573H140.476V100.188Z" fill="#1DA7D5"/>
<path d="M163.406 100.188H151.015V112.573H163.406V100.188Z" fill="#1DA7D5"/>
<path d="M186.336 100.188H173.945V112.573H186.336V100.188Z" fill="#FE6704"/>
<path d="M209.266 100.188H196.875V112.573H209.266V100.188Z" fill="#1DA7D5"/>
<path d="M232.196 100.188H219.805V112.573H232.196V100.188Z" fill="#137D99"/>
<path d="M94.6373 122.447H82.2461V134.832H94.6373V122.447Z" fill="#1DA7D5"/>
<path d="M117.546 122.447H105.155V134.832H117.546V122.447Z" fill="#1DA7D5"/>
<path d="M140.476 122.447H128.085V134.832H140.476V122.447Z" fill="#1DA7D5"/>
<path d="M163.406 122.447H151.015V134.832H163.406V122.447Z" fill="#1DA7D5"/>
<path d="M186.336 122.447H173.945V134.832H186.336V122.447Z" fill="#1DA7D5"/>
<path d="M209.266 122.447H196.875V134.832H209.266V122.447Z" fill="#1DA7D5"/>
<path d="M261.493 193.758L223.553 213.995L218.145 197.418L194.704 178.18L156.891 147.175L135.217 129.406L166.685 115.403L261.493 193.758Z" fill="#22A8D5"/>
<path d="M166.685 115.403L135.217 129.406L115.012 112.829L77.9879 135.684L48.8622 112.829L0 156.389L97.767 240L146.565 203.845L168.814 225.955L210.736 201.717L223.574 214.017L261.493 193.779L166.706 115.425L166.685 115.403ZM218.145 197.418C216.931 196.248 212.843 193.077 212.843 193.077L166.217 220.082L155.976 196.886C154.741 195.652 150.866 192.885 150.866 192.885C150.866 192.885 143.904 197.886 142.754 198.737L98.0438 231.871L9.70857 156.283L49.1177 121.128L74.0491 140.685C75.1988 141.578 76.604 142.047 77.9879 142.047C79.1376 142.047 80.3086 141.727 81.3519 141.089L114.502 120.617L131.172 134.3C132.343 135.258 133.77 135.748 135.217 135.748C136.09 135.748 136.985 135.577 137.815 135.194L165.663 122.809L250.06 192.587L221.53 207.824L218.123 197.418H218.145Z" fill="#FEFEFC"/>
<path d="M155.955 196.886L168.814 225.955L142.265 207.037L155.955 196.886Z" fill="#3C5382"/>
<path d="M218.145 197.418L223.553 213.996L207.18 203.76L218.145 197.418Z" fill="#3C5382"/>
<path d="M150.866 192.864L98.0438 231.85L9.70858 156.283L53.9507 116.808L65.6606 126.001L135.899 181.117L150.866 192.864Z" fill="#23A7D7"/>
<path d="M212.843 193.077L166.217 220.082L155.955 196.886L124.018 171.818L93.7644 148.069L83.2467 139.812L120.293 117.149L130.363 125.427L156.146 146.558L162.874 152.07L206.988 188.268L212.843 193.077Z" fill="#89EFFD"/>
<path d="M206.988 188.267C206.605 189.842 205.413 190.949 202.901 191.119C199.686 191.353 194.491 188.565 190.85 188.097C186.485 187.544 182.014 187.629 177.458 187.629C173.519 187.629 168.814 190.864 164.599 190.183C162.874 189.906 159.531 188.204 158.084 187.586C156.231 186.799 154.102 186.118 151.973 183.969C149.695 181.713 149.865 182.841 148.971 179.67C148.524 178.053 148.971 174.393 149.333 172.584C149.759 170.371 150.589 167.455 151.505 165.476C152.463 163.391 154.613 161.944 156.423 159.496C158.531 156.687 158.382 155.028 161.426 152.921C161.831 152.644 162.32 152.367 162.874 152.07L206.988 188.267Z" fill="#13C09A"/>
<path d="M135.899 181.117C133.365 183.969 129.703 179.926 127.361 180.075C124.04 180.266 123.039 184.331 119.079 183.416C115.715 182.65 116.545 180.287 114.48 178.713C112.756 177.393 110.03 177.649 108.05 176.393C105.666 174.882 105.155 172.222 102.877 171.711C101.429 171.392 97.3412 172.797 96.1489 173.733C94.0624 175.435 94.6798 177.968 91.4862 178.266C89.3359 178.457 86.8236 176.563 85.4609 174.925C83.779 172.903 83.119 169.817 81.437 167.689C79.8402 165.647 79.3505 165.178 76.3911 163.88C72.5162 162.199 66.0438 153.985 62.9141 161.22C61.3598 164.817 67.0019 171.669 69.3439 174.222C70.451 175.393 72.0691 175.733 73.0697 177.074C74.0917 178.436 74.0065 180.543 75.0285 181.926C76.4976 183.969 78.9034 184.65 80.0105 186.991C78.286 189.949 75.3479 186.586 73.4104 185.267C70.6852 183.416 68.7052 182.862 65.7032 181.586C62.4031 180.181 58.0172 178.01 55.1217 176.074C52.2687 174.159 50.8209 171.179 48.0106 169.051C46.4776 167.881 43.0285 166.732 42.0705 165.008C40.9846 163.029 42.0705 163.795 41.7298 161.901C41.4317 160.326 40.1117 156.581 39.9627 154.985C39.3878 148.899 44.3911 141.195 48.0531 137.365C50.6293 134.684 52.4816 130.066 56.4417 128.64C60.2953 127.278 62.2754 128.895 65.6606 126.001L135.899 181.117Z" fill="#058A65"/>
<path d="M156.146 146.558C156.04 146.601 155.955 146.643 155.848 146.686C154.422 147.26 152.293 146.643 151.1 147.388C149.887 148.175 150.014 149.388 149.078 150.346C146.629 152.9 143.925 153.283 139.923 153.41C134.494 153.559 136.921 152.431 134.643 149.601C133.429 148.09 132.471 148.622 131.087 147.43C125.211 142.43 130.725 135.067 125.956 129.874C126.957 128.853 129.022 127.214 130.363 125.427L156.146 146.558Z" fill="#13C09A"/>
<path d="M204.199 171.03C202.411 173.563 198.153 171.541 196.45 174.265C195.704 175.435 195.236 176.797 194.704 178.181L156.891 147.175C157.402 144.068 160.575 138.769 163.598 138.067C165.11 137.727 166.004 138.876 167.409 138.897C168.367 138.918 169.325 137.833 170.241 137.961C172.178 138.259 172.838 139.599 174.541 140.067C176.521 140.578 178.31 139.684 180.269 140.131C182.93 140.727 184.271 142.6 185.549 144.855C189.147 151.154 190.637 152.814 197.535 155.751C200.346 156.943 205.711 160.284 205.796 163.625C201.857 164.902 205.796 168.796 204.199 171.03Z" fill="#058A65"/>
<path d="M130.257 164.093C129.299 164.731 127.83 164.966 127.106 165.583C125.402 166.966 125.935 168.988 124.998 170.669C124.742 171.116 124.402 171.499 124.018 171.818L93.7644 148.069C95.2973 148.197 96.9793 147.984 97.767 147.622C98.8316 147.09 99.1296 145.579 100.109 145.068C101.003 144.6 102.195 144.898 103.26 144.749C106.879 144.281 112.862 144.983 116.056 143.196C117.865 142.174 120.293 134.747 121.549 135.003C124.189 135.577 121.868 142.153 121.911 143.536C121.953 145.515 122.72 147.111 123.188 148.686C123.508 149.729 123.358 151.41 123.742 152.474C124.38 154.155 126.85 156.028 128.128 157.262C129.384 158.454 130.257 158.326 131.619 159.135C134.408 160.816 132.492 162.603 130.257 164.093Z" fill="#13C09A"/>
<path d="M206.371 113.382C206.371 97.6556 193.618 84.9087 177.884 84.9087C162.15 84.9087 149.397 97.6556 149.397 113.382C149.397 129.108 177.884 177.372 177.884 177.372C177.884 177.372 206.371 129.108 206.371 113.382Z" fill="#FF6901"/>
<path d="M181.678 130.675C190.606 128.576 196.141 119.64 194.04 110.716C191.939 101.793 182.999 96.2609 174.071 98.3605C165.143 100.46 159.609 109.396 161.709 118.32C163.81 127.243 172.75 132.775 181.678 130.675Z" fill="white"/>
</g>
<defs>
<clipPath id="clip0_1_76">
<rect width="261.086" height="239.627" fill="white" transform="scale(1.00156)"/>
</clipPath>
</defs>
</svg>
