<svg width="328" height="269" viewBox="0 0 328 269" fill="none" xmlns="http://www.w3.org/2000/svg">
<path opacity="0.2" d="M325.767 257H9.51325C9.51325 257 -8.06085 206.871 19.5441 181.806C47.1491 156.742 68.4948 200.6 94.8359 189.32C121.197 178.039 129.984 63.9966 229.129 70.2477C328.275 76.5189 265.521 194.328 284.339 204.346C303.157 214.364 337.042 216.889 325.747 256.98L325.767 257Z" fill="url(#paint0_linear_7_1888)"/>
<path d="M76.6914 85.6981L76.6914 182.834C76.6914 230.164 114.914 268.532 162.065 268.532H164.464C211.614 268.532 249.837 230.164 249.837 182.834V85.6981C249.837 38.3684 211.614 6.10352e-05 164.464 6.10352e-05H162.065C114.914 6.10352e-05 76.6914 38.3684 76.6914 85.6981Z" fill="#FFC300"/>
<mask id="mask0_7_1888" style="mask-type:luminance" maskUnits="userSpaceOnUse" x="76" y="0" width="174" height="269">
<path d="M76.6914 85.6981L76.6914 182.834C76.6914 230.164 114.914 268.532 162.065 268.532H164.464C211.614 268.532 249.837 230.164 249.837 182.834V85.6981C249.837 38.3684 211.614 6.10352e-05 164.464 6.10352e-05H162.065C114.914 6.10352e-05 76.6914 38.3684 76.6914 85.6981Z" fill="white"/>
</mask>
<g mask="url(#mask0_7_1888)">
<path d="M154.041 246.572C152.569 247.562 145.591 239.641 138.465 228.883C131.34 218.124 126.761 208.607 128.233 207.632C129.706 206.642 136.684 214.563 143.809 225.321C150.935 236.08 155.513 245.597 154.041 246.572Z" fill="#4646E4"/>
<path d="M172.488 246.572C173.96 247.562 180.939 239.641 188.064 228.883C195.19 218.124 199.768 208.607 198.296 207.632C196.824 206.642 189.845 214.563 182.72 225.321C175.595 236.08 171.016 245.597 172.488 246.572Z" fill="#4646E4"/>
<path d="M127.792 213.647C127.792 213.647 138.922 208.238 140.586 205.814C142.249 203.391 144.295 195.026 146.887 178.637C149.478 162.263 150.817 133.505 156.75 131.746C160.961 130.505 162.757 134.466 163.11 137.081C163.419 139.387 163.184 206.391 163.11 222.307C163.11 225.425 161.461 228.306 158.782 229.873C157.751 230.479 156.485 231.085 154.925 231.646L146.651 242.937C146.651 242.937 127.792 233.39 127.777 213.647H127.792Z" fill="white"/>
<path d="M148.933 162.559C148.933 162.559 150.228 153.485 156.75 153.47C163.257 153.47 163.272 163.431 163.272 163.431" stroke="#E3AA44" stroke-miterlimit="10" stroke-linecap="round"/>
<path d="M150.949 147.589C150.949 147.589 152.068 139.535 157.707 139.52C163.345 139.52 163.242 148.771 163.242 148.771" stroke="#E3AA44" stroke-miterlimit="10" stroke-linecap="round"/>
<path d="M198.737 213.647C198.737 213.647 187.607 208.238 185.944 205.814C184.28 203.391 182.234 195.026 179.643 178.637C177.052 162.263 175.712 133.505 169.779 131.746C165.568 130.505 163.772 134.466 163.419 137.081C163.11 139.387 163.345 206.391 163.419 222.307C163.419 225.425 165.068 228.306 167.747 229.873C168.778 230.479 170.044 231.085 171.604 231.646L175.624 237.144L179.863 242.937C179.863 242.937 198.722 233.39 198.737 213.647Z" fill="white"/>
<path d="M177.596 162.559C177.596 162.559 176.301 153.485 169.779 153.47C163.272 153.47 163.257 163.431 163.257 163.431" stroke="#E3AA44" stroke-miterlimit="10" stroke-linecap="round"/>
<path d="M175.579 147.589C175.579 147.589 174.46 139.535 168.822 139.52C163.183 139.52 163.286 148.771 163.286 148.771" stroke="#E3AA44" stroke-miterlimit="10" stroke-linecap="round"/>
<path d="M139.952 205.268C141.616 202.844 144.28 195.026 146.886 178.652C149.477 162.278 150.817 133.52 156.75 131.761C160.96 130.52 162.757 134.481 163.11 137.096C163.419 139.402 163.184 206.405 163.11 222.321C163.11 225.44 161.402 229.075 158.723 230.641" stroke="#E3AA44" stroke-miterlimit="10" stroke-linecap="round"/>
<path d="M186.547 205.563C184.884 203.14 182.248 195.026 179.643 178.652C177.052 162.278 175.712 133.52 169.779 131.761C165.568 130.52 163.772 134.481 163.419 137.096C163.11 139.402 163.345 206.405 163.419 222.321C163.419 225.44 164.759 228.794 167.438 230.361" stroke="#E3AA44" stroke-miterlimit="10" stroke-linecap="round"/>
<path d="M129.647 208.592C130.56 213.395 134.697 227.139 153.467 245.301C154.071 245.878 154.071 246.853 153.452 247.429L99.4078 292.015L62.7646 240.247L127.615 207.558C128.469 207.159 129.455 207.661 129.632 208.592H129.647Z" fill="#7165FA"/>
<path d="M80.0781 264.72L99.3934 292L153.438 247.414C154.056 246.853 154.056 245.878 153.453 245.286C151.156 243.07 149.095 240.912 147.211 238.843C145.812 237.306 118.738 264.882 80.0781 264.705V264.72Z" fill="#5651F3"/>
<path d="M196.882 208.593C195.97 213.395 191.833 227.139 173.062 245.301C172.459 245.878 172.459 246.853 173.077 247.429L227.122 292.015L263.75 240.262L198.899 207.573C198.046 207.174 197.059 207.676 196.882 208.607V208.593Z" fill="#7165FA"/>
<path d="M246.437 264.72L227.122 292L173.077 247.414C172.459 246.853 172.459 245.878 173.062 245.286C175.359 243.07 177.42 240.912 179.304 238.843C180.703 237.306 207.777 264.882 246.437 264.705V264.72Z" fill="#5651F3"/>
</g>
<path d="M109.33 61.064L118.116 60.144L116.414 83.19H110.986L109.33 61.064ZM113.884 95.15C112.719 95.15 111.707 94.736 110.848 93.908C110.02 93.0493 109.606 92.0373 109.606 90.872C109.606 89.7067 110.02 88.6947 110.848 87.836C111.707 86.9773 112.719 86.548 113.884 86.548C115.05 86.548 116.046 86.9773 116.874 87.836C117.733 88.6947 118.162 89.7067 118.162 90.872C118.162 92.0373 117.733 93.0493 116.874 93.908C116.046 94.736 115.05 95.15 113.884 95.15ZM140.685 77.946C140.685 77.0567 140.44 76.3667 139.949 75.876C139.489 75.3547 138.845 75.094 138.017 75.094H125.367V69.344H139.259C141.682 69.344 143.568 70.034 144.917 71.414C146.297 72.794 146.987 74.7107 146.987 77.164V93.816L140.685 94.23V77.946ZM125.597 81.626C128.419 81.3807 130.55 81.2427 131.991 81.212V93.816L125.597 94.23V81.626ZM161.704 75.094H150.572V69.344H172.468L171.824 75.094H168.006V93.816L161.704 94.23V75.094ZM180.652 75.094H176.144V69.344H186.954V93.816L180.652 94.23V75.094ZM195.648 94.506C194.053 94.506 192.505 94.3527 191.002 94.046C191.309 92.4513 191.799 90.6573 192.474 88.664C193.179 88.756 193.793 88.802 194.314 88.802C196.031 88.802 196.89 87.882 196.89 86.042V75.094H191.784V69.344H209.862C212.285 69.344 214.171 70.034 215.52 71.414C216.9 72.794 217.59 74.7107 217.59 77.164V93.816L211.288 94.23V78.038C211.288 77.1487 211.043 76.4433 210.552 75.922C210.061 75.37 209.387 75.094 208.528 75.094H203.192V87.1C203.192 89.7067 202.594 91.5927 201.398 92.758C200.202 93.9233 198.285 94.506 195.648 94.506Z" fill="#7F6CFF"/>
<defs>
<linearGradient id="paint0_linear_7_1888" x1="3.99627" y1="163.514" x2="328.014" y2="163.514" gradientUnits="userSpaceOnUse">
<stop stop-color="#6DECB9"/>
<stop offset="1" stop-color="#48B3B9"/>
</linearGradient>
</defs>
</svg>
