<svg width="14" height="14" viewBox="0 0 14 14" fill="none" xmlns="http://www.w3.org/2000/svg">
<path d="M13 7.88624H8V12.8151C8 13.0766 7.89464 13.3273 7.70711 13.5122C7.51957 13.6971 7.26522 13.8009 7 13.8009C6.73478 13.8009 6.48043 13.6971 6.29289 13.5122C6.10536 13.3273 6 13.0766 6 12.8151V7.88624H1C0.734784 7.88624 0.48043 7.78238 0.292893 7.59751C0.105357 7.41264 0 7.16191 0 6.90046C0 6.63902 0.105357 6.38828 0.292893 6.20341C0.48043 6.01854 0.734784 5.91468 1 5.91468H6V0.98578C6 0.724335 6.10536 0.473598 6.29289 0.288728C6.48043 0.103858 6.73478 0 7 0C7.26522 0 7.51957 0.103858 7.70711 0.288728C7.89464 0.473598 8 0.724335 8 0.98578V5.91468H13C13.2652 5.91468 13.5196 6.01854 13.7071 6.20341C13.8946 6.38828 14 6.63902 14 6.90046C14 7.16191 13.8946 7.41264 13.7071 7.59751C13.5196 7.78238 13.2652 7.88624 13 7.88624Z" fill="#7F6CFF"/>
</svg>
