<svg width="118" height="47" viewBox="0 0 118 47" fill="none" xmlns="http://www.w3.org/2000/svg">
<path opacity="0.2" d="M0 46C2.64162 39.7283 8.88962 35.3039 16.1713 35.3039C19.7547 35.3039 23.0855 36.3758 25.8649 38.2231C27.1742 37.3565 28.5984 36.6723 30.1145 36.1706C31.3089 28.2568 37.8785 22.0992 46.0331 21.4606C45.7115 20.1606 45.5277 18.7923 45.5277 17.3783C45.5277 7.7769 53.3607 0 63.0313 0C72.702 0 80.4201 7.68567 80.5349 17.1958C80.9944 17.1502 81.4308 17.1274 81.8902 17.1274C91.5608 17.1274 99.3938 24.9043 99.3938 34.5057C99.3938 34.8478 99.3708 35.1671 99.3479 35.5092C100.152 35.3951 100.979 35.3267 101.829 35.3267C109.11 35.3267 115.358 39.7511 118 46.0228H0V46Z" fill="#5385EB"/>
</svg>
